<svg width="80" height="80" viewBox="0 0 80 80" fill="none" xmlns="http://www.w3.org/2000/svg">
<path d="M46.4868 60.6372C45.6155 59.8522 44.6243 59.2293 43.57 58.8039C42.5158 58.3786 41.419 58.1591 40.3424 58.1582C39.2656 58.1572 38.2301 58.3748 37.295 58.7984C36.3598 59.2219 35.5433 59.8433 34.8921 60.627L36.2192 61.8224C36.7402 61.1955 37.3935 60.6985 38.1415 60.3595C38.8897 60.0207 39.7181 59.8467 40.5795 59.8475C41.4406 59.8482 42.3182 60.0238 43.1615 60.364C44.005 60.7043 44.7979 61.2027 45.495 61.8306L46.4868 60.6372Z" fill="#5F4A8C"/>
<path d="M33.0359 52.4338L29.3947 49.1213C28.9926 48.7554 28.9127 48.1654 29.2164 47.8036L31.966 44.528C32.2697 44.1662 32.842 44.1695 33.2442 44.5354L36.1571 47.1854C36.5593 47.5513 36.6391 48.1413 36.3354 48.5031L35.2356 49.8133C38.4531 52.7405 43.0311 52.767 45.4608 49.8725L44.0043 48.5474C43.6022 48.1816 43.5223 47.5916 43.826 47.2298L46.0257 44.6093C46.3294 44.2475 46.9017 44.2509 47.3038 44.6167L50.945 47.9293C51.3471 48.2951 51.427 48.8851 51.1233 49.2469L48.3737 52.5225C44.7292 56.8643 37.8622 56.8246 33.0359 52.4338Z" fill="#BFAA6B"/>
<path d="M42.7532 61.9244C43.3858 62.1797 43.9805 62.5535 44.5032 63.0244L43.6106 64.0985C43.2446 63.7689 42.8283 63.5072 42.3856 63.3286C41.9426 63.1499 41.4821 63.0578 41.0299 63.0575C40.5776 63.057 40.1428 63.1483 39.75 63.3262C39.3573 63.5042 39.0143 63.7652 38.7408 64.0943L37.5464 63.0183C37.9371 62.5482 38.4271 62.1754 38.9882 61.9212C39.5492 61.6671 40.1705 61.5365 40.8165 61.5371C41.4625 61.5376 42.1205 61.6692 42.7532 61.9244Z" fill="#5F4A8C"/>
<path d="M79.7012 38.428C78.8937 36.476 77.1628 36.008 75.9915 35.896V24C75.9915 19.588 72.4058 16 67.9966 16H44.0119V10.44C45.2311 9.344 46.0107 7.768 46.0107 6C46.0107 4.4087 45.3789 2.88258 44.2544 1.75736C43.1299 0.632141 41.6048 0 40.0145 0C38.4242 0 36.899 0.632141 35.7745 1.75736C34.65 2.88258 34.0183 4.4087 34.0183 6C34.0183 7.768 34.7978 9.344 36.017 10.44V16H12.0323C7.62314 16 4.03742 19.588 4.03742 24V35.988L3.70963 36.012C2.70217 36.0848 1.75958 36.5365 1.07139 37.2763C0.38319 38.0162 0.00040872 38.9893 0 40V48C0 49.0609 0.421159 50.0783 1.17083 50.8284C1.92049 51.5786 2.93726 52 3.99745 52H4.03742V72C4.03742 76.412 7.62314 80 12.0323 80H67.9966C72.4058 80 75.9915 76.412 75.9915 72V52C77.0517 52 78.0685 51.5786 78.8182 50.8284C79.5678 50.0783 79.989 49.0609 79.989 48V40.248C80.035 39.6272 79.9365 39.0042 79.7012 38.428ZM12.0323 72V24H67.9966L68.0006 39.984L67.9966 40V48L68.0006 48.02L68.0046 72H12.0323Z" fill="#5F4A8C"/>
</svg>
