<svg width="856" height="230" viewBox="0 0 856 230" fill="none" xmlns="http://www.w3.org/2000/svg">
<circle cx="239.5" cy="73.5" r="2.5" fill="#D9D9D9"/>
<circle cx="251.5" cy="73.5" r="2.5" fill="#D9D9D9"/>
<circle cx="263.5" cy="73.5" r="2.5" fill="#D9D9D9"/>
<circle cx="275.5" cy="73.5" r="2.5" fill="#D9D9D9"/>
<circle cx="287.5" cy="73.5" r="2.5" fill="#D9D9D9"/>
<circle cx="299.5" cy="73.5" r="2.5" fill="#D9D9D9"/>
<circle cx="305.5" cy="81.5" r="2.5" fill="#D9D9D9"/>
<circle cx="308.5" cy="90.5" r="2.5" fill="#D9D9D9"/>
<circle cx="314.5" cy="97.5" r="2.5" fill="#D9D9D9"/>
<circle cx="323.5" cy="102.5" r="2.5" fill="#D9D9D9"/>
<circle cx="330.5" cy="110.5" r="2.5" fill="#D9D9D9"/>
<circle cx="341.5" cy="110.5" r="2.5" fill="#D9D9D9"/>
<circle cx="352.5" cy="110.5" r="2.5" fill="#D9D9D9"/>
<circle cx="363.5" cy="110.5" r="2.5" fill="#D9D9D9"/>
<circle cx="374.5" cy="110.5" r="2.5" fill="#D9D9D9"/>
<circle cx="385.5" cy="110.5" r="2.5" fill="#D9D9D9"/>
<circle cx="396.5" cy="110.5" r="2.5" fill="#D9D9D9"/>
<circle cx="459.5" cy="109.5" r="2.5" fill="#D9D9D9"/>
<circle cx="470.5" cy="109.5" r="2.5" fill="#D9D9D9"/>
<circle cx="481.5" cy="109.5" r="2.5" fill="#D9D9D9"/>
<circle cx="492.5" cy="109.5" r="2.5" fill="#D9D9D9"/>
<circle cx="503.5" cy="109.5" r="2.5" fill="#D9D9D9"/>
<circle cx="514.5" cy="109.5" r="2.5" fill="#D9D9D9"/>
<circle cx="470.5" cy="109.5" r="2.5" fill="#D9D9D9"/>
<circle cx="481.5" cy="109.5" r="2.5" fill="#D9D9D9"/>
<circle cx="492.5" cy="109.5" r="2.5" fill="#D9D9D9"/>
<circle cx="503.5" cy="109.5" r="2.5" fill="#D9D9D9"/>
<circle cx="514.5" cy="109.5" r="2.5" fill="#D9D9D9"/>
<circle cx="525.5" cy="109.5" r="2.5" fill="#D9D9D9"/>
<circle cx="314.5" cy="125.5" r="2.5" fill="#D9D9D9"/>
<circle cx="323.5" cy="118.5" r="2.5" fill="#D9D9D9"/>
<circle cx="239.5" cy="151.5" r="2.5" fill="#D9D9D9"/>
<circle cx="251.5" cy="151.5" r="2.5" fill="#D9D9D9"/>
<circle cx="263.5" cy="151.5" r="2.5" fill="#D9D9D9"/>
<circle cx="275.5" cy="151.5" r="2.5" fill="#D9D9D9"/>
<circle cx="287.5" cy="151.5" r="2.5" fill="#D9D9D9"/>
<circle cx="299.5" cy="151.5" r="2.5" fill="#D9D9D9"/>
<circle cx="308.5" cy="144.5" r="2.5" fill="#D9D9D9"/>
<circle cx="310.5" cy="134.5" r="2.5" fill="#D9D9D9"/>
<circle cx="536.5" cy="109.5" r="2.5" fill="#D9D9D9"/>
<circle cx="547.5" cy="109.5" r="2.5" fill="#D9D9D9"/>
<circle cx="558.5" cy="109.5" r="2.5" fill="#D9D9D9"/>
<g filter="url(#filter0_d_867_23)">
<rect x="565" y="25" width="274" height="179" rx="10" fill="white"/>
<rect x="565.5" y="25.5" width="273" height="178" rx="9.5" stroke="#D9D9D9"/>
</g>
<path d="M588.928 55.32V54.28H590.736C591.067 54.28 591.355 54.2267 591.6 54.12C591.845 54.0133 592.032 53.8587 592.16 53.656C592.299 53.4533 592.368 53.2133 592.368 52.936C592.368 52.5093 592.219 52.184 591.92 51.96C591.632 51.736 591.237 51.624 590.736 51.624H589.504V59.176H590.976C591.36 59.176 591.707 59.1227 592.016 59.016C592.325 58.8987 592.565 58.7173 592.736 58.472C592.917 58.2267 593.008 57.912 593.008 57.528C593.008 57.2507 592.955 57.016 592.848 56.824C592.752 56.6213 592.608 56.456 592.416 56.328C592.235 56.1893 592.021 56.0933 591.776 56.04C591.531 55.976 591.264 55.944 590.976 55.944H588.928V54.696H591.184C591.728 54.696 592.245 54.7547 592.736 54.872C593.237 54.9893 593.685 55.176 594.08 55.432C594.475 55.6773 594.784 55.9973 595.008 56.392C595.243 56.7867 595.36 57.2613 595.36 57.816C595.36 58.552 595.184 59.1547 594.832 59.624C594.491 60.0933 594.005 60.44 593.376 60.664C592.747 60.888 592.016 61 591.184 61H587.216V49.8H590.944C591.691 49.8 592.347 49.9067 592.912 50.12C593.477 50.3227 593.92 50.632 594.24 51.048C594.56 51.464 594.72 51.992 594.72 52.632C594.72 53.1973 594.56 53.6827 594.24 54.088C593.92 54.4933 593.477 54.8027 592.912 55.016C592.347 55.2187 591.691 55.32 590.944 55.32H588.928ZM599.262 58.12C599.262 58.6 599.358 58.9733 599.55 59.24C599.742 59.496 600.051 59.624 600.478 59.624C600.776 59.624 601.032 59.5653 601.246 59.448C601.47 59.32 601.64 59.144 601.758 58.92C601.886 58.696 601.95 58.4293 601.95 58.12V53.64H604.014V61H601.95V59.88C601.715 60.296 601.416 60.616 601.054 60.84C600.691 61.0533 600.248 61.16 599.726 61.16C598.851 61.16 598.195 60.9093 597.758 60.408C597.331 59.9067 597.118 59.2187 597.118 58.344V53.64H599.262V58.12ZM606.423 58.456C606.733 58.744 607.021 58.9787 607.287 59.16C607.554 59.3307 607.805 59.4587 608.039 59.544C608.285 59.6293 608.514 59.672 608.727 59.672C609.005 59.672 609.218 59.6133 609.367 59.496C609.517 59.368 609.591 59.1973 609.591 58.984C609.591 58.792 609.527 58.632 609.399 58.504C609.282 58.3653 609.106 58.2427 608.871 58.136C608.637 58.0293 608.338 57.9173 607.975 57.8C607.634 57.672 607.303 57.5227 606.983 57.352C606.663 57.1707 606.397 56.936 606.183 56.648C605.981 56.3493 605.879 55.9707 605.879 55.512C605.879 55.0747 605.997 54.7067 606.231 54.408C606.466 54.0987 606.781 53.8693 607.175 53.72C607.581 53.56 608.029 53.48 608.519 53.48C608.935 53.48 609.325 53.5333 609.687 53.64C610.05 53.7467 610.386 53.8907 610.695 54.072C611.005 54.2427 611.277 54.4453 611.511 54.68L610.599 55.96C610.333 55.672 610.013 55.4373 609.639 55.256C609.277 55.0747 608.919 54.984 608.567 54.984C608.333 54.984 608.146 55.032 608.007 55.128C607.879 55.2133 607.815 55.3467 607.815 55.528C607.815 55.688 607.879 55.832 608.007 55.96C608.146 56.0773 608.338 56.184 608.583 56.28C608.839 56.376 609.127 56.4933 609.447 56.632C609.842 56.7813 610.205 56.952 610.535 57.144C610.877 57.3253 611.149 57.5547 611.351 57.832C611.554 58.1093 611.655 58.472 611.655 58.92C611.655 59.656 611.415 60.232 610.935 60.648C610.455 61.0533 609.794 61.256 608.951 61.256C608.429 61.256 607.949 61.1867 607.511 61.048C607.085 60.9093 606.695 60.728 606.343 60.504C606.002 60.2693 605.693 60.0187 605.415 59.752L606.423 58.456ZM612.991 50.792C612.991 50.4507 613.113 50.1733 613.359 49.96C613.604 49.736 613.897 49.624 614.239 49.624C614.58 49.624 614.868 49.736 615.103 49.96C615.348 50.1733 615.471 50.4507 615.471 50.792C615.471 51.1227 615.348 51.4 615.103 51.624C614.868 51.848 614.58 51.96 614.239 51.96C613.897 51.96 613.604 51.848 613.359 51.624C613.113 51.4 612.991 51.1227 612.991 50.792ZM613.215 53.64H615.231V61H613.215V53.64ZM622.182 56.52C622.182 56.0293 622.086 55.656 621.894 55.4C621.702 55.144 621.393 55.016 620.966 55.016C620.678 55.016 620.422 55.08 620.198 55.208C619.974 55.3253 619.804 55.496 619.686 55.72C619.569 55.944 619.51 56.2107 619.51 56.52V61H617.43V53.64H619.51V54.76C619.734 54.344 620.028 54.0293 620.39 53.816C620.764 53.592 621.212 53.48 621.734 53.48C622.609 53.48 623.26 53.7307 623.686 54.232C624.113 54.7227 624.326 55.4107 624.326 56.296V61H622.182V56.52ZM629.84 61.16C629.04 61.16 628.341 61 627.744 60.68C627.146 60.36 626.682 59.9173 626.352 59.352C626.032 58.776 625.872 58.0987 625.872 57.32C625.872 56.5307 626.032 55.8533 626.352 55.288C626.682 54.712 627.146 54.2693 627.744 53.96C628.341 53.64 629.045 53.48 629.856 53.48C630.666 53.48 631.354 53.6293 631.92 53.928C632.496 54.216 632.933 54.6427 633.232 55.208C633.53 55.7627 633.68 56.4347 633.68 57.224C633.68 57.32 633.674 57.4213 633.664 57.528C633.664 57.6347 633.658 57.72 633.648 57.784H627.056V56.504H631.84L631.28 57.24C631.322 57.176 631.36 57.0907 631.392 56.984C631.434 56.8667 631.456 56.7707 631.456 56.696C631.456 56.3333 631.386 56.024 631.248 55.768C631.12 55.512 630.933 55.3093 630.688 55.16C630.442 55.0107 630.154 54.936 629.824 54.936C629.418 54.936 629.077 55.0267 628.8 55.208C628.533 55.3787 628.325 55.64 628.176 55.992C628.037 56.3333 627.962 56.76 627.952 57.272C627.952 57.7627 628.021 58.1787 628.16 58.52C628.309 58.8613 628.528 59.1227 628.816 59.304C629.104 59.4853 629.45 59.576 629.856 59.576C630.314 59.576 630.704 59.4907 631.024 59.32C631.354 59.1387 631.626 58.872 631.84 58.52L633.648 59.08C633.264 59.7733 632.752 60.296 632.112 60.648C631.482 60.9893 630.725 61.16 629.84 61.16ZM635.611 58.456C635.92 58.744 636.208 58.9787 636.475 59.16C636.741 59.3307 636.992 59.4587 637.227 59.544C637.472 59.6293 637.701 59.672 637.915 59.672C638.192 59.672 638.405 59.6133 638.555 59.496C638.704 59.368 638.779 59.1973 638.779 58.984C638.779 58.792 638.715 58.632 638.587 58.504C638.469 58.3653 638.293 58.2427 638.059 58.136C637.824 58.0293 637.525 57.9173 637.163 57.8C636.821 57.672 636.491 57.5227 636.171 57.352C635.851 57.1707 635.584 56.936 635.371 56.648C635.168 56.3493 635.067 55.9707 635.067 55.512C635.067 55.0747 635.184 54.7067 635.419 54.408C635.653 54.0987 635.968 53.8693 636.363 53.72C636.768 53.56 637.216 53.48 637.707 53.48C638.123 53.48 638.512 53.5333 638.875 53.64C639.237 53.7467 639.573 53.8907 639.883 54.072C640.192 54.2427 640.464 54.4453 640.699 54.68L639.787 55.96C639.52 55.672 639.2 55.4373 638.827 55.256C638.464 55.0747 638.107 54.984 637.755 54.984C637.52 54.984 637.333 55.032 637.195 55.128C637.067 55.2133 637.003 55.3467 637.003 55.528C637.003 55.688 637.067 55.832 637.195 55.96C637.333 56.0773 637.525 56.184 637.771 56.28C638.027 56.376 638.315 56.4933 638.635 56.632C639.029 56.7813 639.392 56.952 639.723 57.144C640.064 57.3253 640.336 57.5547 640.539 57.832C640.741 58.1093 640.843 58.472 640.843 58.92C640.843 59.656 640.603 60.232 640.123 60.648C639.643 61.0533 638.981 61.256 638.139 61.256C637.616 61.256 637.136 61.1867 636.699 61.048C636.272 60.9093 635.883 60.728 635.531 60.504C635.189 60.2693 634.88 60.0187 634.603 59.752L635.611 58.456ZM642.642 58.456C642.951 58.744 643.239 58.9787 643.506 59.16C643.773 59.3307 644.023 59.4587 644.258 59.544C644.503 59.6293 644.733 59.672 644.946 59.672C645.223 59.672 645.437 59.6133 645.586 59.496C645.735 59.368 645.81 59.1973 645.81 58.984C645.81 58.792 645.746 58.632 645.618 58.504C645.501 58.3653 645.325 58.2427 645.09 58.136C644.855 58.0293 644.557 57.9173 644.194 57.8C643.853 57.672 643.522 57.5227 643.202 57.352C642.882 57.1707 642.615 56.936 642.402 56.648C642.199 56.3493 642.098 55.9707 642.098 55.512C642.098 55.0747 642.215 54.7067 642.45 54.408C642.685 54.0987 642.999 53.8693 643.394 53.72C643.799 53.56 644.247 53.48 644.738 53.48C645.154 53.48 645.543 53.5333 645.906 53.64C646.269 53.7467 646.605 53.8907 646.914 54.072C647.223 54.2427 647.495 54.4453 647.73 54.68L646.818 55.96C646.551 55.672 646.231 55.4373 645.858 55.256C645.495 55.0747 645.138 54.984 644.786 54.984C644.551 54.984 644.365 55.032 644.226 55.128C644.098 55.2133 644.034 55.3467 644.034 55.528C644.034 55.688 644.098 55.832 644.226 55.96C644.365 56.0773 644.557 56.184 644.802 56.28C645.058 56.376 645.346 56.4933 645.666 56.632C646.061 56.7813 646.423 56.952 646.754 57.144C647.095 57.3253 647.367 57.5547 647.57 57.832C647.773 58.1093 647.874 58.472 647.874 58.92C647.874 59.656 647.634 60.232 647.154 60.648C646.674 61.0533 646.013 61.256 645.17 61.256C644.647 61.256 644.167 61.1867 643.73 61.048C643.303 60.9093 642.914 60.728 642.562 60.504C642.221 60.2693 641.911 60.0187 641.634 59.752L642.642 58.456ZM659.734 56.84V55.016H665.254C665.286 55.8693 665.185 56.6747 664.95 57.432C664.726 58.1893 664.369 58.8613 663.878 59.448C663.398 60.024 662.801 60.4773 662.086 60.808C661.371 61.1387 660.555 61.304 659.638 61.304C658.774 61.304 657.974 61.16 657.238 60.872C656.513 60.584 655.878 60.1787 655.334 59.656C654.801 59.1333 654.385 58.5093 654.086 57.784C653.798 57.0587 653.654 56.264 653.654 55.4C653.654 54.536 653.803 53.7467 654.102 53.032C654.411 52.3067 654.838 51.688 655.382 51.176C655.926 50.664 656.566 50.2693 657.302 49.992C658.038 49.7147 658.838 49.576 659.702 49.576C660.47 49.576 661.158 49.6827 661.766 49.896C662.385 50.1093 662.929 50.408 663.398 50.792C663.878 51.1653 664.289 51.6133 664.63 52.136L662.678 53.272C662.401 52.7813 662.011 52.3867 661.51 52.088C661.019 51.7787 660.417 51.624 659.702 51.624C659.03 51.624 658.417 51.7787 657.862 52.088C657.307 52.3867 656.865 52.8187 656.534 53.384C656.214 53.9493 656.054 54.6213 656.054 55.4C656.054 56.168 656.214 56.8453 656.534 57.432C656.854 58.008 657.286 58.456 657.83 58.776C658.385 59.096 659.009 59.256 659.702 59.256C660.161 59.256 660.571 59.1973 660.934 59.08C661.297 58.952 661.606 58.776 661.862 58.552C662.129 58.328 662.353 58.072 662.534 57.784C662.715 57.496 662.854 57.1813 662.95 56.84H659.734ZM668.962 53.64V61H666.93V53.64H668.962ZM671.122 55.8C670.984 55.672 670.84 55.576 670.69 55.512C670.552 55.4373 670.376 55.4 670.162 55.4C669.906 55.4 669.688 55.4693 669.506 55.608C669.325 55.7467 669.186 55.944 669.09 56.2C669.005 56.4453 668.962 56.744 668.962 57.096L668.386 56.52C668.386 55.9333 668.498 55.416 668.722 54.968C668.946 54.5093 669.24 54.1467 669.602 53.88C669.965 53.6027 670.338 53.464 670.722 53.464C670.989 53.464 671.24 53.512 671.474 53.608C671.72 53.704 671.917 53.848 672.066 54.04L671.122 55.8ZM672.434 57.32C672.434 56.552 672.61 55.88 672.962 55.304C673.325 54.728 673.81 54.28 674.418 53.96C675.037 53.64 675.736 53.48 676.514 53.48C677.293 53.48 677.986 53.64 678.594 53.96C679.213 54.28 679.698 54.728 680.05 55.304C680.413 55.88 680.594 56.552 680.594 57.32C680.594 58.0773 680.413 58.7493 680.05 59.336C679.698 59.912 679.213 60.36 678.594 60.68C677.986 61 677.293 61.16 676.514 61.16C675.736 61.16 675.037 61 674.418 60.68C673.81 60.36 673.325 59.912 672.962 59.336C672.61 58.7493 672.434 58.0773 672.434 57.32ZM674.546 57.32C674.546 57.736 674.632 58.104 674.802 58.424C674.984 58.7333 675.224 58.9787 675.522 59.16C675.821 59.3307 676.152 59.416 676.514 59.416C676.877 59.416 677.208 59.3307 677.506 59.16C677.805 58.9787 678.04 58.7333 678.21 58.424C678.392 58.104 678.482 57.736 678.482 57.32C678.482 56.904 678.392 56.536 678.21 56.216C678.04 55.896 677.805 55.6507 677.506 55.48C677.208 55.3093 676.877 55.224 676.514 55.224C676.152 55.224 675.821 55.3093 675.522 55.48C675.224 55.6507 674.984 55.896 674.802 56.216C674.632 56.536 674.546 56.904 674.546 57.32ZM680.827 53.64H683.035L684.651 57.72L686.731 53.08L688.891 57.736L690.523 53.64H692.715L689.115 61.496L686.747 56.808L684.443 61.496L680.827 53.64ZM692.752 53.64H697.296V55.384H692.752V53.64ZM694.016 51.08H696.016V61H694.016V51.08ZM700.479 48.52V61H698.399V48.52H700.479ZM703.151 56.52C703.151 56.0293 703.055 55.656 702.863 55.4C702.682 55.144 702.372 55.016 701.935 55.016C701.647 55.016 701.391 55.08 701.167 55.208C700.943 55.3253 700.772 55.496 700.655 55.72C700.538 55.944 700.479 56.2107 700.479 56.52H700.063C700.063 55.9333 700.159 55.4053 700.351 54.936C700.554 54.4667 700.852 54.0933 701.247 53.816C701.642 53.5387 702.127 53.4 702.703 53.4C703.279 53.4 703.754 53.5067 704.127 53.72C704.5 53.9333 704.778 54.2533 704.959 54.68C705.14 55.096 705.231 55.608 705.231 56.216V61H703.151V56.52Z" fill="url(#paint0_linear_867_23)"/>
<rect x="627" y="128" width="8" height="34" fill="#D9D9D9"/>
<rect x="638" y="140" width="8" height="22" fill="#DF9A33"/>
<rect x="675" y="107" width="8" height="55" fill="#D9D9D9"/>
<rect x="686" y="136" width="8" height="26" fill="#DF9A33"/>
<rect x="723" y="121" width="8" height="41" fill="#D9D9D9"/>
<rect x="734" y="128" width="8" height="34" fill="#DF9A33"/>
<rect x="771" y="136" width="8" height="26" fill="#D9D9D9"/>
<rect x="782" y="89" width="8" height="73" fill="#DF9A33"/>
<path d="M586.707 157.55C586.707 157.853 586.737 158.136 586.798 158.397C586.859 158.658 586.945 158.887 587.057 159.083C587.174 159.279 587.314 159.433 587.477 159.545C587.64 159.652 587.825 159.706 588.03 159.706C588.24 159.706 588.424 159.652 588.583 159.545C588.746 159.433 588.884 159.279 588.996 159.083C589.113 158.887 589.201 158.658 589.262 158.397C589.323 158.136 589.353 157.853 589.353 157.55C589.353 157.247 589.323 156.964 589.262 156.703C589.201 156.442 589.113 156.213 588.996 156.017C588.884 155.821 588.746 155.669 588.583 155.562C588.424 155.45 588.24 155.394 588.03 155.394C587.825 155.394 587.64 155.45 587.477 155.562C587.314 155.669 587.174 155.821 587.057 156.017C586.945 156.213 586.859 156.442 586.798 156.703C586.737 156.964 586.707 157.247 586.707 157.55ZM586.322 157.55C586.322 157.069 586.392 156.64 586.532 156.262C586.672 155.884 586.87 155.585 587.127 155.366C587.384 155.142 587.685 155.03 588.03 155.03C588.375 155.03 588.676 155.142 588.933 155.366C589.19 155.585 589.388 155.884 589.528 156.262C589.668 156.64 589.738 157.069 589.738 157.55C589.738 158.031 589.668 158.46 589.528 158.838C589.388 159.216 589.19 159.517 588.933 159.741C588.676 159.96 588.375 160.07 588.03 160.07C587.685 160.07 587.384 159.96 587.127 159.741C586.87 159.517 586.672 159.216 586.532 158.838C586.392 158.46 586.322 158.031 586.322 157.55Z" fill="url(#paint1_linear_867_23)"/>
<path d="M586.602 139.807V139.408L588.114 139.044V144H587.729V139.513L586.602 139.807ZM589.742 141.55C589.742 141.853 589.772 142.136 589.833 142.397C589.894 142.658 589.98 142.887 590.092 143.083C590.209 143.279 590.349 143.433 590.512 143.545C590.675 143.652 590.86 143.706 591.065 143.706C591.275 143.706 591.459 143.652 591.618 143.545C591.781 143.433 591.919 143.279 592.031 143.083C592.148 142.887 592.236 142.658 592.297 142.397C592.358 142.136 592.388 141.853 592.388 141.55C592.388 141.247 592.358 140.964 592.297 140.703C592.236 140.442 592.148 140.213 592.031 140.017C591.919 139.821 591.781 139.669 591.618 139.562C591.459 139.45 591.275 139.394 591.065 139.394C590.86 139.394 590.675 139.45 590.512 139.562C590.349 139.669 590.209 139.821 590.092 140.017C589.98 140.213 589.894 140.442 589.833 140.703C589.772 140.964 589.742 141.247 589.742 141.55ZM589.357 141.55C589.357 141.069 589.427 140.64 589.567 140.262C589.707 139.884 589.905 139.585 590.162 139.366C590.419 139.142 590.72 139.03 591.065 139.03C591.41 139.03 591.711 139.142 591.968 139.366C592.225 139.585 592.423 139.884 592.563 140.262C592.703 140.64 592.773 141.069 592.773 141.55C592.773 142.031 592.703 142.46 592.563 142.838C592.423 143.216 592.225 143.517 591.968 143.741C591.711 143.96 591.41 144.07 591.065 144.07C590.72 144.07 590.419 143.96 590.162 143.741C589.905 143.517 589.707 143.216 589.567 142.838C589.427 142.46 589.357 142.031 589.357 141.55ZM593.803 141.55C593.803 141.853 593.833 142.136 593.894 142.397C593.954 142.658 594.041 142.887 594.153 143.083C594.269 143.279 594.409 143.433 594.573 143.545C594.736 143.652 594.92 143.706 595.126 143.706C595.336 143.706 595.52 143.652 595.679 143.545C595.842 143.433 595.98 143.279 596.092 143.083C596.208 142.887 596.297 142.658 596.358 142.397C596.418 142.136 596.449 141.853 596.449 141.55C596.449 141.247 596.418 140.964 596.358 140.703C596.297 140.442 596.208 140.213 596.092 140.017C595.98 139.821 595.842 139.669 595.679 139.562C595.52 139.45 595.336 139.394 595.126 139.394C594.92 139.394 594.736 139.45 594.573 139.562C594.409 139.669 594.269 139.821 594.153 140.017C594.041 140.213 593.954 140.442 593.894 140.703C593.833 140.964 593.803 141.247 593.803 141.55ZM593.418 141.55C593.418 141.069 593.488 140.64 593.628 140.262C593.768 139.884 593.966 139.585 594.223 139.366C594.479 139.142 594.78 139.03 595.126 139.03C595.471 139.03 595.772 139.142 596.029 139.366C596.285 139.585 596.484 139.884 596.624 140.262C596.764 140.64 596.834 141.069 596.834 141.55C596.834 142.031 596.764 142.46 596.624 142.838C596.484 143.216 596.285 143.517 596.029 143.741C595.772 143.96 595.471 144.07 595.126 144.07C594.78 144.07 594.479 143.96 594.223 143.741C593.966 143.517 593.768 143.216 593.628 142.838C593.488 142.46 593.418 142.031 593.418 141.55ZM597.863 141.55C597.863 141.853 597.894 142.136 597.954 142.397C598.015 142.658 598.101 142.887 598.213 143.083C598.33 143.279 598.47 143.433 598.633 143.545C598.797 143.652 598.981 143.706 599.186 143.706C599.396 143.706 599.581 143.652 599.739 143.545C599.903 143.433 600.04 143.279 600.152 143.083C600.269 142.887 600.358 142.658 600.418 142.397C600.479 142.136 600.509 141.853 600.509 141.55C600.509 141.247 600.479 140.964 600.418 140.703C600.358 140.442 600.269 140.213 600.152 140.017C600.04 139.821 599.903 139.669 599.739 139.562C599.581 139.45 599.396 139.394 599.186 139.394C598.981 139.394 598.797 139.45 598.633 139.562C598.47 139.669 598.33 139.821 598.213 140.017C598.101 140.213 598.015 140.442 597.954 140.703C597.894 140.964 597.863 141.247 597.863 141.55ZM597.478 141.55C597.478 141.069 597.548 140.64 597.688 140.262C597.828 139.884 598.027 139.585 598.283 139.366C598.54 139.142 598.841 139.03 599.186 139.03C599.532 139.03 599.833 139.142 600.089 139.366C600.346 139.585 600.544 139.884 600.684 140.262C600.824 140.64 600.894 141.069 600.894 141.55C600.894 142.031 600.824 142.46 600.684 142.838C600.544 143.216 600.346 143.517 600.089 143.741C599.833 143.96 599.532 144.07 599.186 144.07C598.841 144.07 598.54 143.96 598.283 143.741C598.027 143.517 597.828 143.216 597.688 142.838C597.548 142.46 597.478 142.031 597.478 141.55Z" fill="url(#paint2_linear_867_23)"/>
<path d="M631.9 180.153L633.293 176.1H633.72L631.907 181.189L630.409 176.968L628.911 181.189L627.098 176.1H627.525L628.939 180.153L630.409 175.911L631.9 180.153ZM635.019 181.07C634.73 181.07 634.473 180.998 634.249 180.853C634.025 180.708 633.848 180.51 633.717 180.258C633.591 180.001 633.528 179.71 633.528 179.383C633.528 179.056 633.593 178.767 633.724 178.515C633.855 178.263 634.037 178.067 634.27 177.927C634.503 177.782 634.772 177.71 635.075 177.71C635.369 177.71 635.626 177.778 635.845 177.913C636.069 178.048 636.242 178.237 636.363 178.48C636.489 178.718 636.552 178.993 636.552 179.306C636.552 179.334 636.55 179.364 636.545 179.397C636.545 179.43 636.543 179.458 636.538 179.481H633.759V179.166H636.265L636.111 179.383C636.12 179.36 636.13 179.329 636.139 179.292C636.153 179.25 636.16 179.21 636.16 179.173C636.16 178.954 636.111 178.758 636.013 178.585C635.92 178.412 635.791 178.277 635.628 178.179C635.465 178.081 635.28 178.032 635.075 178.032C634.837 178.032 634.629 178.088 634.452 178.2C634.279 178.307 634.144 178.461 634.046 178.662C633.948 178.858 633.899 179.091 633.899 179.362C633.899 179.637 633.946 179.878 634.039 180.083C634.137 180.288 634.272 180.447 634.445 180.559C634.622 180.671 634.828 180.727 635.061 180.727C635.308 180.727 635.523 180.673 635.705 180.566C635.892 180.459 636.057 180.291 636.202 180.062L636.496 180.251C636.314 180.531 636.102 180.739 635.859 180.874C635.621 181.005 635.341 181.07 635.019 181.07ZM638.587 181.07C638.298 181.07 638.041 180.998 637.817 180.853C637.593 180.708 637.416 180.51 637.285 180.258C637.159 180.001 637.096 179.71 637.096 179.383C637.096 179.056 637.162 178.767 637.292 178.515C637.423 178.263 637.605 178.067 637.838 177.927C638.072 177.782 638.34 177.71 638.643 177.71C638.937 177.71 639.194 177.778 639.413 177.913C639.637 178.048 639.81 178.237 639.931 178.48C640.057 178.718 640.12 178.993 640.12 179.306C640.12 179.334 640.118 179.364 640.113 179.397C640.113 179.43 640.111 179.458 640.106 179.481H637.327V179.166H639.833L639.679 179.383C639.689 179.36 639.698 179.329 639.707 179.292C639.721 179.25 639.728 179.21 639.728 179.173C639.728 178.954 639.679 178.758 639.581 178.585C639.488 178.412 639.36 178.277 639.196 178.179C639.033 178.081 638.849 178.032 638.643 178.032C638.405 178.032 638.198 178.088 638.02 178.2C637.848 178.307 637.712 178.461 637.614 178.662C637.516 178.858 637.467 179.091 637.467 179.362C637.467 179.637 637.514 179.878 637.607 180.083C637.705 180.288 637.841 180.447 638.013 180.559C638.191 180.671 638.396 180.727 638.629 180.727C638.877 180.727 639.091 180.673 639.273 180.566C639.46 180.459 639.626 180.291 639.77 180.062L640.064 180.251C639.882 180.531 639.67 180.739 639.427 180.874C639.189 181.005 638.909 181.07 638.587 181.07ZM640.91 175.54H641.274V181H640.91V175.54ZM642.653 177.78H643.122L641.603 179.11L643.255 181H642.793L641.141 179.11L642.653 177.78ZM645.984 176.807V176.408L647.496 176.044V181H647.111V176.513L645.984 176.807Z" fill="url(#paint3_linear_867_23)"/>
<path d="M678.9 180.153L680.293 176.1H680.72L678.907 181.189L677.409 176.968L675.911 181.189L674.098 176.1H674.525L675.939 180.153L677.409 175.911L678.9 180.153ZM682.019 181.07C681.73 181.07 681.473 180.998 681.249 180.853C681.025 180.708 680.848 180.51 680.717 180.258C680.591 180.001 680.528 179.71 680.528 179.383C680.528 179.056 680.593 178.767 680.724 178.515C680.855 178.263 681.037 178.067 681.27 177.927C681.503 177.782 681.772 177.71 682.075 177.71C682.369 177.71 682.626 177.778 682.845 177.913C683.069 178.048 683.242 178.237 683.363 178.48C683.489 178.718 683.552 178.993 683.552 179.306C683.552 179.334 683.55 179.364 683.545 179.397C683.545 179.43 683.543 179.458 683.538 179.481H680.759V179.166H683.265L683.111 179.383C683.12 179.36 683.13 179.329 683.139 179.292C683.153 179.25 683.16 179.21 683.16 179.173C683.16 178.954 683.111 178.758 683.013 178.585C682.92 178.412 682.791 178.277 682.628 178.179C682.465 178.081 682.28 178.032 682.075 178.032C681.837 178.032 681.629 178.088 681.452 178.2C681.279 178.307 681.144 178.461 681.046 178.662C680.948 178.858 680.899 179.091 680.899 179.362C680.899 179.637 680.946 179.878 681.039 180.083C681.137 180.288 681.272 180.447 681.445 180.559C681.622 180.671 681.828 180.727 682.061 180.727C682.308 180.727 682.523 180.673 682.705 180.566C682.892 180.459 683.057 180.291 683.202 180.062L683.496 180.251C683.314 180.531 683.102 180.739 682.859 180.874C682.621 181.005 682.341 181.07 682.019 181.07ZM685.587 181.07C685.298 181.07 685.041 180.998 684.817 180.853C684.593 180.708 684.416 180.51 684.285 180.258C684.159 180.001 684.096 179.71 684.096 179.383C684.096 179.056 684.162 178.767 684.292 178.515C684.423 178.263 684.605 178.067 684.838 177.927C685.072 177.782 685.34 177.71 685.643 177.71C685.937 177.71 686.194 177.778 686.413 177.913C686.637 178.048 686.81 178.237 686.931 178.48C687.057 178.718 687.12 178.993 687.12 179.306C687.12 179.334 687.118 179.364 687.113 179.397C687.113 179.43 687.111 179.458 687.106 179.481H684.327V179.166H686.833L686.679 179.383C686.689 179.36 686.698 179.329 686.707 179.292C686.721 179.25 686.728 179.21 686.728 179.173C686.728 178.954 686.679 178.758 686.581 178.585C686.488 178.412 686.36 178.277 686.196 178.179C686.033 178.081 685.849 178.032 685.643 178.032C685.405 178.032 685.198 178.088 685.02 178.2C684.848 178.307 684.712 178.461 684.614 178.662C684.516 178.858 684.467 179.091 684.467 179.362C684.467 179.637 684.514 179.878 684.607 180.083C684.705 180.288 684.841 180.447 685.013 180.559C685.191 180.671 685.396 180.727 685.629 180.727C685.877 180.727 686.091 180.673 686.273 180.566C686.46 180.459 686.626 180.291 686.77 180.062L687.064 180.251C686.882 180.531 686.67 180.739 686.427 180.874C686.189 181.005 685.909 181.07 685.587 181.07ZM687.91 175.54H688.274V181H687.91V175.54ZM689.653 177.78H690.122L688.603 179.11L690.255 181H689.793L688.141 179.11L689.653 177.78ZM692.536 181L694.825 178.585C694.932 178.464 695.028 178.345 695.112 178.228C695.201 178.111 695.268 177.988 695.315 177.857C695.366 177.722 695.392 177.577 695.392 177.423C695.392 177.302 695.371 177.18 695.329 177.059C695.287 176.938 695.222 176.828 695.133 176.73C695.044 176.627 694.932 176.546 694.797 176.485C694.666 176.42 694.51 176.387 694.328 176.387C694.09 176.387 693.885 176.445 693.712 176.562C693.539 176.674 693.406 176.835 693.313 177.045C693.22 177.255 693.173 177.5 693.173 177.78H692.788C692.788 177.43 692.849 177.124 692.97 176.863C693.096 176.597 693.273 176.392 693.502 176.247C693.735 176.098 694.011 176.023 694.328 176.023C694.585 176.023 694.804 176.067 694.986 176.156C695.173 176.245 695.324 176.359 695.441 176.499C695.562 176.634 695.651 176.784 695.707 176.947C695.763 177.106 695.791 177.26 695.791 177.409C695.791 177.675 695.726 177.925 695.595 178.158C695.469 178.391 695.313 178.604 695.126 178.795L693.341 180.636H695.882V181H692.536Z" fill="url(#paint4_linear_867_23)"/>
<path d="M725.9 180.153L727.293 176.1H727.72L725.907 181.189L724.409 176.968L722.911 181.189L721.098 176.1H721.525L722.939 180.153L724.409 175.911L725.9 180.153ZM729.019 181.07C728.73 181.07 728.473 180.998 728.249 180.853C728.025 180.708 727.848 180.51 727.717 180.258C727.591 180.001 727.528 179.71 727.528 179.383C727.528 179.056 727.593 178.767 727.724 178.515C727.855 178.263 728.037 178.067 728.27 177.927C728.503 177.782 728.772 177.71 729.075 177.71C729.369 177.71 729.626 177.778 729.845 177.913C730.069 178.048 730.242 178.237 730.363 178.48C730.489 178.718 730.552 178.993 730.552 179.306C730.552 179.334 730.55 179.364 730.545 179.397C730.545 179.43 730.543 179.458 730.538 179.481H727.759V179.166H730.265L730.111 179.383C730.12 179.36 730.13 179.329 730.139 179.292C730.153 179.25 730.16 179.21 730.16 179.173C730.16 178.954 730.111 178.758 730.013 178.585C729.92 178.412 729.791 178.277 729.628 178.179C729.465 178.081 729.28 178.032 729.075 178.032C728.837 178.032 728.629 178.088 728.452 178.2C728.279 178.307 728.144 178.461 728.046 178.662C727.948 178.858 727.899 179.091 727.899 179.362C727.899 179.637 727.946 179.878 728.039 180.083C728.137 180.288 728.272 180.447 728.445 180.559C728.622 180.671 728.828 180.727 729.061 180.727C729.308 180.727 729.523 180.673 729.705 180.566C729.892 180.459 730.057 180.291 730.202 180.062L730.496 180.251C730.314 180.531 730.102 180.739 729.859 180.874C729.621 181.005 729.341 181.07 729.019 181.07ZM732.587 181.07C732.298 181.07 732.041 180.998 731.817 180.853C731.593 180.708 731.416 180.51 731.285 180.258C731.159 180.001 731.096 179.71 731.096 179.383C731.096 179.056 731.162 178.767 731.292 178.515C731.423 178.263 731.605 178.067 731.838 177.927C732.072 177.782 732.34 177.71 732.643 177.71C732.937 177.71 733.194 177.778 733.413 177.913C733.637 178.048 733.81 178.237 733.931 178.48C734.057 178.718 734.12 178.993 734.12 179.306C734.12 179.334 734.118 179.364 734.113 179.397C734.113 179.43 734.111 179.458 734.106 179.481H731.327V179.166H733.833L733.679 179.383C733.689 179.36 733.698 179.329 733.707 179.292C733.721 179.25 733.728 179.21 733.728 179.173C733.728 178.954 733.679 178.758 733.581 178.585C733.488 178.412 733.36 178.277 733.196 178.179C733.033 178.081 732.849 178.032 732.643 178.032C732.405 178.032 732.198 178.088 732.02 178.2C731.848 178.307 731.712 178.461 731.614 178.662C731.516 178.858 731.467 179.091 731.467 179.362C731.467 179.637 731.514 179.878 731.607 180.083C731.705 180.288 731.841 180.447 732.013 180.559C732.191 180.671 732.396 180.727 732.629 180.727C732.877 180.727 733.091 180.673 733.273 180.566C733.46 180.459 733.626 180.291 733.77 180.062L734.064 180.251C733.882 180.531 733.67 180.739 733.427 180.874C733.189 181.005 732.909 181.07 732.587 181.07ZM734.91 175.54H735.274V181H734.91V175.54ZM736.653 177.78H737.122L735.603 179.11L737.255 181H736.793L735.141 179.11L736.653 177.78ZM741.139 178.536V178.284C741.298 178.284 741.447 178.261 741.587 178.214C741.727 178.167 741.851 178.102 741.958 178.018C742.07 177.934 742.156 177.834 742.217 177.717C742.282 177.596 742.315 177.463 742.315 177.318C742.315 177.15 742.278 176.996 742.203 176.856C742.133 176.711 742.028 176.597 741.888 176.513C741.753 176.424 741.585 176.38 741.384 176.38C741.09 176.38 740.852 176.469 740.67 176.646C740.488 176.823 740.397 177.047 740.397 177.318H740.026C740.026 177.061 740.082 176.837 740.194 176.646C740.311 176.455 740.469 176.305 740.67 176.198C740.875 176.086 741.111 176.03 741.377 176.03C741.657 176.03 741.895 176.091 742.091 176.212C742.292 176.333 742.443 176.49 742.546 176.681C742.653 176.872 742.707 177.08 742.707 177.304C742.707 177.542 742.635 177.754 742.49 177.941C742.35 178.128 742.161 178.275 741.923 178.382C741.69 178.485 741.428 178.536 741.139 178.536ZM741.349 181.07C741.111 181.07 740.896 181.035 740.705 180.965C740.518 180.895 740.357 180.799 740.222 180.678C740.091 180.552 739.991 180.407 739.921 180.244C739.851 180.076 739.816 179.896 739.816 179.705H740.208C740.208 179.896 740.252 180.069 740.341 180.223C740.434 180.372 740.567 180.491 740.74 180.58C740.913 180.664 741.116 180.706 741.349 180.706C741.573 180.706 741.767 180.664 741.93 180.58C742.098 180.491 742.226 180.372 742.315 180.223C742.408 180.069 742.455 179.892 742.455 179.691C742.455 179.514 742.415 179.36 742.336 179.229C742.261 179.094 742.159 178.982 742.028 178.893C741.902 178.804 741.762 178.739 741.608 178.697C741.454 178.65 741.298 178.627 741.139 178.627V178.375C741.354 178.375 741.561 178.403 741.762 178.459C741.967 178.51 742.152 178.592 742.315 178.704C742.478 178.811 742.607 178.951 742.7 179.124C742.798 179.297 742.847 179.5 742.847 179.733C742.847 179.999 742.782 180.232 742.651 180.433C742.525 180.634 742.35 180.79 742.126 180.902C741.902 181.014 741.643 181.07 741.349 181.07Z" fill="url(#paint5_linear_867_23)"/>
<path d="M773.9 180.153L775.293 176.1H775.72L773.907 181.189L772.409 176.968L770.911 181.189L769.098 176.1H769.525L770.939 180.153L772.409 175.911L773.9 180.153ZM777.019 181.07C776.73 181.07 776.473 180.998 776.249 180.853C776.025 180.708 775.848 180.51 775.717 180.258C775.591 180.001 775.528 179.71 775.528 179.383C775.528 179.056 775.593 178.767 775.724 178.515C775.855 178.263 776.037 178.067 776.27 177.927C776.503 177.782 776.772 177.71 777.075 177.71C777.369 177.71 777.626 177.778 777.845 177.913C778.069 178.048 778.242 178.237 778.363 178.48C778.489 178.718 778.552 178.993 778.552 179.306C778.552 179.334 778.55 179.364 778.545 179.397C778.545 179.43 778.543 179.458 778.538 179.481H775.759V179.166H778.265L778.111 179.383C778.12 179.36 778.13 179.329 778.139 179.292C778.153 179.25 778.16 179.21 778.16 179.173C778.16 178.954 778.111 178.758 778.013 178.585C777.92 178.412 777.791 178.277 777.628 178.179C777.465 178.081 777.28 178.032 777.075 178.032C776.837 178.032 776.629 178.088 776.452 178.2C776.279 178.307 776.144 178.461 776.046 178.662C775.948 178.858 775.899 179.091 775.899 179.362C775.899 179.637 775.946 179.878 776.039 180.083C776.137 180.288 776.272 180.447 776.445 180.559C776.622 180.671 776.828 180.727 777.061 180.727C777.308 180.727 777.523 180.673 777.705 180.566C777.892 180.459 778.057 180.291 778.202 180.062L778.496 180.251C778.314 180.531 778.102 180.739 777.859 180.874C777.621 181.005 777.341 181.07 777.019 181.07ZM780.587 181.07C780.298 181.07 780.041 180.998 779.817 180.853C779.593 180.708 779.416 180.51 779.285 180.258C779.159 180.001 779.096 179.71 779.096 179.383C779.096 179.056 779.162 178.767 779.292 178.515C779.423 178.263 779.605 178.067 779.838 177.927C780.072 177.782 780.34 177.71 780.643 177.71C780.937 177.71 781.194 177.778 781.413 177.913C781.637 178.048 781.81 178.237 781.931 178.48C782.057 178.718 782.12 178.993 782.12 179.306C782.12 179.334 782.118 179.364 782.113 179.397C782.113 179.43 782.111 179.458 782.106 179.481H779.327V179.166H781.833L781.679 179.383C781.689 179.36 781.698 179.329 781.707 179.292C781.721 179.25 781.728 179.21 781.728 179.173C781.728 178.954 781.679 178.758 781.581 178.585C781.488 178.412 781.36 178.277 781.196 178.179C781.033 178.081 780.849 178.032 780.643 178.032C780.405 178.032 780.198 178.088 780.02 178.2C779.848 178.307 779.712 178.461 779.614 178.662C779.516 178.858 779.467 179.091 779.467 179.362C779.467 179.637 779.514 179.878 779.607 180.083C779.705 180.288 779.841 180.447 780.013 180.559C780.191 180.671 780.396 180.727 780.629 180.727C780.877 180.727 781.091 180.673 781.273 180.566C781.46 180.459 781.626 180.291 781.77 180.062L782.064 180.251C781.882 180.531 781.67 180.739 781.427 180.874C781.189 181.005 780.909 181.07 780.587 181.07ZM782.91 175.54H783.274V181H782.91V175.54ZM784.653 177.78H785.122L783.603 179.11L785.255 181H784.793L783.141 179.11L784.653 177.78ZM787.536 180.02L790.238 176.1H790.385V181H790V179.866V179.803V176.989L788.18 179.677H790.161H790.238H791.155V180.02H787.536Z" fill="url(#paint6_linear_867_23)"/>
<path d="M586.154 128L588.443 125.585C588.55 125.464 588.646 125.345 588.73 125.228C588.819 125.111 588.886 124.988 588.933 124.857C588.984 124.722 589.01 124.577 589.01 124.423C589.01 124.302 588.989 124.18 588.947 124.059C588.905 123.938 588.84 123.828 588.751 123.73C588.662 123.627 588.55 123.546 588.415 123.485C588.284 123.42 588.128 123.387 587.946 123.387C587.708 123.387 587.503 123.445 587.33 123.562C587.157 123.674 587.024 123.835 586.931 124.045C586.838 124.255 586.791 124.5 586.791 124.78H586.406C586.406 124.43 586.467 124.124 586.588 123.863C586.714 123.597 586.891 123.392 587.12 123.247C587.353 123.098 587.629 123.023 587.946 123.023C588.203 123.023 588.422 123.067 588.604 123.156C588.791 123.245 588.942 123.359 589.059 123.499C589.18 123.634 589.269 123.784 589.325 123.947C589.381 124.106 589.409 124.26 589.409 124.409C589.409 124.675 589.344 124.925 589.213 125.158C589.087 125.391 588.931 125.604 588.744 125.795L586.959 127.636H589.5V128H586.154ZM590.535 125.55C590.535 125.853 590.565 126.136 590.626 126.397C590.687 126.658 590.773 126.887 590.885 127.083C591.002 127.279 591.142 127.433 591.305 127.545C591.468 127.652 591.653 127.706 591.858 127.706C592.068 127.706 592.252 127.652 592.411 127.545C592.574 127.433 592.712 127.279 592.824 127.083C592.941 126.887 593.029 126.658 593.09 126.397C593.151 126.136 593.181 125.853 593.181 125.55C593.181 125.247 593.151 124.964 593.09 124.703C593.029 124.442 592.941 124.213 592.824 124.017C592.712 123.821 592.574 123.669 592.411 123.562C592.252 123.45 592.068 123.394 591.858 123.394C591.653 123.394 591.468 123.45 591.305 123.562C591.142 123.669 591.002 123.821 590.885 124.017C590.773 124.213 590.687 124.442 590.626 124.703C590.565 124.964 590.535 125.247 590.535 125.55ZM590.15 125.55C590.15 125.069 590.22 124.64 590.36 124.262C590.5 123.884 590.698 123.585 590.955 123.366C591.212 123.142 591.513 123.03 591.858 123.03C592.203 123.03 592.504 123.142 592.761 123.366C593.018 123.585 593.216 123.884 593.356 124.262C593.496 124.64 593.566 125.069 593.566 125.55C593.566 126.031 593.496 126.46 593.356 126.838C593.216 127.216 593.018 127.517 592.761 127.741C592.504 127.96 592.203 128.07 591.858 128.07C591.513 128.07 591.212 127.96 590.955 127.741C590.698 127.517 590.5 127.216 590.36 126.838C590.22 126.46 590.15 126.031 590.15 125.55ZM594.596 125.55C594.596 125.853 594.626 126.136 594.687 126.397C594.747 126.658 594.834 126.887 594.946 127.083C595.062 127.279 595.202 127.433 595.366 127.545C595.529 127.652 595.713 127.706 595.919 127.706C596.129 127.706 596.313 127.652 596.472 127.545C596.635 127.433 596.773 127.279 596.885 127.083C597.001 126.887 597.09 126.658 597.151 126.397C597.211 126.136 597.242 125.853 597.242 125.55C597.242 125.247 597.211 124.964 597.151 124.703C597.09 124.442 597.001 124.213 596.885 124.017C596.773 123.821 596.635 123.669 596.472 123.562C596.313 123.45 596.129 123.394 595.919 123.394C595.713 123.394 595.529 123.45 595.366 123.562C595.202 123.669 595.062 123.821 594.946 124.017C594.834 124.213 594.747 124.442 594.687 124.703C594.626 124.964 594.596 125.247 594.596 125.55ZM594.211 125.55C594.211 125.069 594.281 124.64 594.421 124.262C594.561 123.884 594.759 123.585 595.016 123.366C595.272 123.142 595.573 123.03 595.919 123.03C596.264 123.03 596.565 123.142 596.822 123.366C597.078 123.585 597.277 123.884 597.417 124.262C597.557 124.64 597.627 125.069 597.627 125.55C597.627 126.031 597.557 126.46 597.417 126.838C597.277 127.216 597.078 127.517 596.822 127.741C596.565 127.96 596.264 128.07 595.919 128.07C595.573 128.07 595.272 127.96 595.016 127.741C594.759 127.517 594.561 127.216 594.421 126.838C594.281 126.46 594.211 126.031 594.211 125.55ZM598.656 125.55C598.656 125.853 598.687 126.136 598.747 126.397C598.808 126.658 598.894 126.887 599.006 127.083C599.123 127.279 599.263 127.433 599.426 127.545C599.59 127.652 599.774 127.706 599.979 127.706C600.189 127.706 600.374 127.652 600.532 127.545C600.696 127.433 600.833 127.279 600.945 127.083C601.062 126.887 601.151 126.658 601.211 126.397C601.272 126.136 601.302 125.853 601.302 125.55C601.302 125.247 601.272 124.964 601.211 124.703C601.151 124.442 601.062 124.213 600.945 124.017C600.833 123.821 600.696 123.669 600.532 123.562C600.374 123.45 600.189 123.394 599.979 123.394C599.774 123.394 599.59 123.45 599.426 123.562C599.263 123.669 599.123 123.821 599.006 124.017C598.894 124.213 598.808 124.442 598.747 124.703C598.687 124.964 598.656 125.247 598.656 125.55ZM598.271 125.55C598.271 125.069 598.341 124.64 598.481 124.262C598.621 123.884 598.82 123.585 599.076 123.366C599.333 123.142 599.634 123.03 599.979 123.03C600.325 123.03 600.626 123.142 600.882 123.366C601.139 123.585 601.337 123.884 601.477 124.262C601.617 124.64 601.687 125.069 601.687 125.55C601.687 126.031 601.617 126.46 601.477 126.838C601.337 127.216 601.139 127.517 600.882 127.741C600.626 127.96 600.325 128.07 599.979 128.07C599.634 128.07 599.333 127.96 599.076 127.741C598.82 127.517 598.621 127.216 598.481 126.838C598.341 126.46 598.271 126.031 598.271 125.55Z" fill="url(#paint7_linear_867_23)"/>
<path d="M587.757 109.536V109.284C587.916 109.284 588.065 109.261 588.205 109.214C588.345 109.167 588.469 109.102 588.576 109.018C588.688 108.934 588.774 108.834 588.835 108.717C588.9 108.596 588.933 108.463 588.933 108.318C588.933 108.15 588.896 107.996 588.821 107.856C588.751 107.711 588.646 107.597 588.506 107.513C588.371 107.424 588.203 107.38 588.002 107.38C587.708 107.38 587.47 107.469 587.288 107.646C587.106 107.823 587.015 108.047 587.015 108.318H586.644C586.644 108.061 586.7 107.837 586.812 107.646C586.929 107.455 587.087 107.305 587.288 107.198C587.493 107.086 587.729 107.03 587.995 107.03C588.275 107.03 588.513 107.091 588.709 107.212C588.91 107.333 589.061 107.49 589.164 107.681C589.271 107.872 589.325 108.08 589.325 108.304C589.325 108.542 589.253 108.754 589.108 108.941C588.968 109.128 588.779 109.275 588.541 109.382C588.308 109.485 588.046 109.536 587.757 109.536ZM587.967 112.07C587.729 112.07 587.514 112.035 587.323 111.965C587.136 111.895 586.975 111.799 586.84 111.678C586.709 111.552 586.609 111.407 586.539 111.244C586.469 111.076 586.434 110.896 586.434 110.705H586.826C586.826 110.896 586.87 111.069 586.959 111.223C587.052 111.372 587.185 111.491 587.358 111.58C587.531 111.664 587.734 111.706 587.967 111.706C588.191 111.706 588.385 111.664 588.548 111.58C588.716 111.491 588.844 111.372 588.933 111.223C589.026 111.069 589.073 110.892 589.073 110.691C589.073 110.514 589.033 110.36 588.954 110.229C588.879 110.094 588.777 109.982 588.646 109.893C588.52 109.804 588.38 109.739 588.226 109.697C588.072 109.65 587.916 109.627 587.757 109.627V109.375C587.972 109.375 588.179 109.403 588.38 109.459C588.585 109.51 588.77 109.592 588.933 109.704C589.096 109.811 589.225 109.951 589.318 110.124C589.416 110.297 589.465 110.5 589.465 110.733C589.465 110.999 589.4 111.232 589.269 111.433C589.143 111.634 588.968 111.79 588.744 111.902C588.52 112.014 588.261 112.07 587.967 112.07ZM590.542 109.55C590.542 109.853 590.572 110.136 590.633 110.397C590.694 110.658 590.78 110.887 590.892 111.083C591.009 111.279 591.149 111.433 591.312 111.545C591.475 111.652 591.66 111.706 591.865 111.706C592.075 111.706 592.259 111.652 592.418 111.545C592.581 111.433 592.719 111.279 592.831 111.083C592.948 110.887 593.036 110.658 593.097 110.397C593.158 110.136 593.188 109.853 593.188 109.55C593.188 109.247 593.158 108.964 593.097 108.703C593.036 108.442 592.948 108.213 592.831 108.017C592.719 107.821 592.581 107.669 592.418 107.562C592.259 107.45 592.075 107.394 591.865 107.394C591.66 107.394 591.475 107.45 591.312 107.562C591.149 107.669 591.009 107.821 590.892 108.017C590.78 108.213 590.694 108.442 590.633 108.703C590.572 108.964 590.542 109.247 590.542 109.55ZM590.157 109.55C590.157 109.069 590.227 108.64 590.367 108.262C590.507 107.884 590.705 107.585 590.962 107.366C591.219 107.142 591.52 107.03 591.865 107.03C592.21 107.03 592.511 107.142 592.768 107.366C593.025 107.585 593.223 107.884 593.363 108.262C593.503 108.64 593.573 109.069 593.573 109.55C593.573 110.031 593.503 110.46 593.363 110.838C593.223 111.216 593.025 111.517 592.768 111.741C592.511 111.96 592.21 112.07 591.865 112.07C591.52 112.07 591.219 111.96 590.962 111.741C590.705 111.517 590.507 111.216 590.367 110.838C590.227 110.46 590.157 110.031 590.157 109.55ZM594.603 109.55C594.603 109.853 594.633 110.136 594.694 110.397C594.754 110.658 594.841 110.887 594.953 111.083C595.069 111.279 595.209 111.433 595.373 111.545C595.536 111.652 595.72 111.706 595.926 111.706C596.136 111.706 596.32 111.652 596.479 111.545C596.642 111.433 596.78 111.279 596.892 111.083C597.008 110.887 597.097 110.658 597.158 110.397C597.218 110.136 597.249 109.853 597.249 109.55C597.249 109.247 597.218 108.964 597.158 108.703C597.097 108.442 597.008 108.213 596.892 108.017C596.78 107.821 596.642 107.669 596.479 107.562C596.32 107.45 596.136 107.394 595.926 107.394C595.72 107.394 595.536 107.45 595.373 107.562C595.209 107.669 595.069 107.821 594.953 108.017C594.841 108.213 594.754 108.442 594.694 108.703C594.633 108.964 594.603 109.247 594.603 109.55ZM594.218 109.55C594.218 109.069 594.288 108.64 594.428 108.262C594.568 107.884 594.766 107.585 595.023 107.366C595.279 107.142 595.58 107.03 595.926 107.03C596.271 107.03 596.572 107.142 596.829 107.366C597.085 107.585 597.284 107.884 597.424 108.262C597.564 108.64 597.634 109.069 597.634 109.55C597.634 110.031 597.564 110.46 597.424 110.838C597.284 111.216 597.085 111.517 596.829 111.741C596.572 111.96 596.271 112.07 595.926 112.07C595.58 112.07 595.279 111.96 595.023 111.741C594.766 111.517 594.568 111.216 594.428 110.838C594.288 110.46 594.218 110.031 594.218 109.55ZM598.663 109.55C598.663 109.853 598.693 110.136 598.754 110.397C598.815 110.658 598.901 110.887 599.013 111.083C599.13 111.279 599.27 111.433 599.433 111.545C599.596 111.652 599.781 111.706 599.986 111.706C600.196 111.706 600.38 111.652 600.539 111.545C600.702 111.433 600.84 111.279 600.952 111.083C601.069 110.887 601.157 110.658 601.218 110.397C601.279 110.136 601.309 109.853 601.309 109.55C601.309 109.247 601.279 108.964 601.218 108.703C601.157 108.442 601.069 108.213 600.952 108.017C600.84 107.821 600.702 107.669 600.539 107.562C600.38 107.45 600.196 107.394 599.986 107.394C599.781 107.394 599.596 107.45 599.433 107.562C599.27 107.669 599.13 107.821 599.013 108.017C598.901 108.213 598.815 108.442 598.754 108.703C598.693 108.964 598.663 109.247 598.663 109.55ZM598.278 109.55C598.278 109.069 598.348 108.64 598.488 108.262C598.628 107.884 598.826 107.585 599.083 107.366C599.34 107.142 599.641 107.03 599.986 107.03C600.331 107.03 600.632 107.142 600.889 107.366C601.146 107.585 601.344 107.884 601.484 108.262C601.624 108.64 601.694 109.069 601.694 109.55C601.694 110.031 601.624 110.46 601.484 110.838C601.344 111.216 601.146 111.517 600.889 111.741C600.632 111.96 600.331 112.07 599.986 112.07C599.641 112.07 599.34 111.96 599.083 111.741C598.826 111.517 598.628 111.216 598.488 110.838C598.348 110.46 598.278 110.031 598.278 109.55Z" fill="url(#paint8_linear_867_23)"/>
<path d="M586.154 95.02L588.856 91.1H589.003V96H588.618V94.866V94.803V91.989L586.798 94.677H588.779H588.856H589.773V95.02H586.154ZM590.706 93.55C590.706 93.8533 590.736 94.1357 590.797 94.397C590.858 94.6583 590.944 94.887 591.056 95.083C591.173 95.279 591.313 95.433 591.476 95.545C591.639 95.6523 591.824 95.706 592.029 95.706C592.239 95.706 592.423 95.6523 592.582 95.545C592.745 95.433 592.883 95.279 592.995 95.083C593.112 94.887 593.2 94.6583 593.261 94.397C593.322 94.1357 593.352 93.8533 593.352 93.55C593.352 93.2467 593.322 92.9643 593.261 92.703C593.2 92.4417 593.112 92.213 592.995 92.017C592.883 91.821 592.745 91.6693 592.582 91.562C592.423 91.45 592.239 91.394 592.029 91.394C591.824 91.394 591.639 91.45 591.476 91.562C591.313 91.6693 591.173 91.821 591.056 92.017C590.944 92.213 590.858 92.4417 590.797 92.703C590.736 92.9643 590.706 93.2467 590.706 93.55ZM590.321 93.55C590.321 93.0693 590.391 92.64 590.531 92.262C590.671 91.884 590.869 91.5853 591.126 91.366C591.383 91.142 591.684 91.03 592.029 91.03C592.374 91.03 592.675 91.142 592.932 91.366C593.189 91.5853 593.387 91.884 593.527 92.262C593.667 92.64 593.737 93.0693 593.737 93.55C593.737 94.0307 593.667 94.46 593.527 94.838C593.387 95.216 593.189 95.517 592.932 95.741C592.675 95.9603 592.374 96.07 592.029 96.07C591.684 96.07 591.383 95.9603 591.126 95.741C590.869 95.517 590.671 95.216 590.531 94.838C590.391 94.46 590.321 94.0307 590.321 93.55ZM594.767 93.55C594.767 93.8533 594.797 94.1357 594.858 94.397C594.918 94.6583 595.005 94.887 595.117 95.083C595.233 95.279 595.373 95.433 595.537 95.545C595.7 95.6523 595.884 95.706 596.09 95.706C596.3 95.706 596.484 95.6523 596.643 95.545C596.806 95.433 596.944 95.279 597.056 95.083C597.172 94.887 597.261 94.6583 597.322 94.397C597.382 94.1357 597.413 93.8533 597.413 93.55C597.413 93.2467 597.382 92.9643 597.322 92.703C597.261 92.4417 597.172 92.213 597.056 92.017C596.944 91.821 596.806 91.6693 596.643 91.562C596.484 91.45 596.3 91.394 596.09 91.394C595.884 91.394 595.7 91.45 595.537 91.562C595.373 91.6693 595.233 91.821 595.117 92.017C595.005 92.213 594.918 92.4417 594.858 92.703C594.797 92.9643 594.767 93.2467 594.767 93.55ZM594.382 93.55C594.382 93.0693 594.452 92.64 594.592 92.262C594.732 91.884 594.93 91.5853 595.187 91.366C595.443 91.142 595.744 91.03 596.09 91.03C596.435 91.03 596.736 91.142 596.993 91.366C597.249 91.5853 597.448 91.884 597.588 92.262C597.728 92.64 597.798 93.0693 597.798 93.55C597.798 94.0307 597.728 94.46 597.588 94.838C597.448 95.216 597.249 95.517 596.993 95.741C596.736 95.9603 596.435 96.07 596.09 96.07C595.744 96.07 595.443 95.9603 595.187 95.741C594.93 95.517 594.732 95.216 594.592 94.838C594.452 94.46 594.382 94.0307 594.382 93.55ZM598.827 93.55C598.827 93.8533 598.857 94.1357 598.918 94.397C598.979 94.6583 599.065 94.887 599.177 95.083C599.294 95.279 599.434 95.433 599.597 95.545C599.76 95.6523 599.945 95.706 600.15 95.706C600.36 95.706 600.544 95.6523 600.703 95.545C600.866 95.433 601.004 95.279 601.116 95.083C601.233 94.887 601.321 94.6583 601.382 94.397C601.443 94.1357 601.473 93.8533 601.473 93.55C601.473 93.2467 601.443 92.9643 601.382 92.703C601.321 92.4417 601.233 92.213 601.116 92.017C601.004 91.821 600.866 91.6693 600.703 91.562C600.544 91.45 600.36 91.394 600.15 91.394C599.945 91.394 599.76 91.45 599.597 91.562C599.434 91.6693 599.294 91.821 599.177 92.017C599.065 92.213 598.979 92.4417 598.918 92.703C598.857 92.9643 598.827 93.2467 598.827 93.55ZM598.442 93.55C598.442 93.0693 598.512 92.64 598.652 92.262C598.792 91.884 598.99 91.5853 599.247 91.366C599.504 91.142 599.805 91.03 600.15 91.03C600.495 91.03 600.796 91.142 601.053 91.366C601.31 91.5853 601.508 91.884 601.648 92.262C601.788 92.64 601.858 93.0693 601.858 93.55C601.858 94.0307 601.788 94.46 601.648 94.838C601.508 95.216 601.31 95.517 601.053 95.741C600.796 95.9603 600.495 96.07 600.15 96.07C599.805 96.07 599.504 95.9603 599.247 95.741C598.99 95.517 598.792 95.216 598.652 94.838C598.512 94.46 598.442 94.0307 598.442 93.55Z" fill="url(#paint9_linear_867_23)"/>
<rect x="770.5" y="2.5" width="85" height="70" rx="2.5" fill="white" stroke="#D9D9D9"/>
<rect x="784" y="13" width="55" height="3" rx="1.5" fill="#D9D9D9"/>
<rect x="777.078" y="12.831" width="33.934" height="3" rx="1.5" transform="rotate(0.4741 777.078 12.831)" fill="#DF9A33"/>
<path d="M794.623 58.586C794.702 58.7913 794.798 58.978 794.91 59.146C795.027 59.314 795.169 59.4493 795.337 59.552C795.505 59.65 795.706 59.699 795.939 59.699C796.256 59.699 796.504 59.6127 796.681 59.44C796.863 59.2627 796.954 59.0387 796.954 58.768C796.954 58.53 796.9 58.3387 796.793 58.194C796.686 58.0493 796.546 57.9327 796.373 57.844C796.205 57.7507 796.028 57.669 795.841 57.599C795.701 57.5477 795.554 57.487 795.4 57.417C795.251 57.3423 795.111 57.2537 794.98 57.151C794.849 57.0437 794.742 56.9153 794.658 56.766C794.579 56.6167 794.539 56.437 794.539 56.227C794.539 55.9937 794.595 55.7883 794.707 55.611C794.819 55.429 794.975 55.289 795.176 55.191C795.377 55.0883 795.603 55.037 795.855 55.037C796.116 55.037 796.34 55.086 796.527 55.184C796.718 55.282 796.877 55.4057 797.003 55.555C797.129 55.7043 797.225 55.8583 797.29 56.017L796.954 56.206C796.903 56.08 796.828 55.9563 796.73 55.835C796.637 55.7137 796.518 55.6133 796.373 55.534C796.228 55.45 796.049 55.408 795.834 55.408C795.549 55.408 795.33 55.4827 795.176 55.632C795.022 55.7767 794.945 55.9587 794.945 56.178C794.945 56.36 794.989 56.5163 795.078 56.647C795.167 56.7777 795.3 56.8967 795.477 57.004C795.654 57.1067 795.874 57.2047 796.135 57.298C796.27 57.3493 796.41 57.4123 796.555 57.487C796.7 57.5617 796.83 57.655 796.947 57.767C797.068 57.879 797.166 58.0143 797.241 58.173C797.316 58.327 797.353 58.5113 797.353 58.726C797.353 58.9267 797.316 59.1087 797.241 59.272C797.171 59.4353 797.071 59.5777 796.94 59.699C796.814 59.8157 796.665 59.9067 796.492 59.972C796.319 60.0327 796.133 60.063 795.932 60.063C795.647 60.063 795.398 60.0047 795.183 59.888C794.968 59.7713 794.789 59.615 794.644 59.419C794.499 59.223 794.387 59.0107 794.308 58.782L794.623 58.586ZM798.588 58.824C798.588 59.104 798.649 59.3257 798.77 59.489C798.891 59.6477 799.083 59.727 799.344 59.727C799.526 59.727 799.687 59.6827 799.827 59.594C799.972 59.5053 800.084 59.3863 800.163 59.237C800.247 59.0877 800.289 58.922 800.289 58.74V56.78H800.653V60H800.289V59.328C800.2 59.5613 800.067 59.7433 799.89 59.874C799.713 60.0047 799.503 60.07 799.26 60.07C798.924 60.07 798.667 59.9627 798.49 59.748C798.313 59.5287 798.224 59.2347 798.224 58.866V56.78H798.588V58.824ZM801.814 58.39C801.814 58.6513 801.87 58.8823 801.982 59.083C802.094 59.2837 802.246 59.4423 802.437 59.559C802.633 59.671 802.852 59.727 803.095 59.727C803.268 59.727 803.429 59.7013 803.578 59.65C803.727 59.5987 803.856 59.5333 803.963 59.454C804.075 59.37 804.154 59.286 804.201 59.202V59.657C804.103 59.7737 803.951 59.8717 803.746 59.951C803.545 60.0303 803.328 60.07 803.095 60.07C802.782 60.07 802.502 59.9977 802.255 59.853C802.008 59.7083 801.809 59.51 801.66 59.258C801.515 59.0013 801.443 58.712 801.443 58.39C801.443 58.0633 801.515 57.774 801.66 57.522C801.809 57.27 802.008 57.0717 802.255 56.927C802.502 56.7823 802.782 56.71 803.095 56.71C803.328 56.71 803.545 56.752 803.746 56.836C803.951 56.9153 804.103 57.011 804.201 57.123V57.578C804.154 57.4893 804.075 57.4053 803.963 57.326C803.856 57.2467 803.727 57.1813 803.578 57.13C803.429 57.0787 803.268 57.053 803.095 57.053C802.852 57.053 802.633 57.1113 802.437 57.228C802.246 57.34 802.094 57.4963 801.982 57.697C801.87 57.8977 801.814 58.1287 801.814 58.39ZM805.191 58.39C805.191 58.6513 805.247 58.8823 805.359 59.083C805.471 59.2837 805.623 59.4423 805.814 59.559C806.01 59.671 806.229 59.727 806.472 59.727C806.645 59.727 806.806 59.7013 806.955 59.65C807.104 59.5987 807.233 59.5333 807.34 59.454C807.452 59.37 807.531 59.286 807.578 59.202V59.657C807.48 59.7737 807.328 59.8717 807.123 59.951C806.922 60.0303 806.705 60.07 806.472 60.07C806.159 60.07 805.879 59.9977 805.632 59.853C805.385 59.7083 805.186 59.51 805.037 59.258C804.892 59.0013 804.82 58.712 804.82 58.39C804.82 58.0633 804.892 57.774 805.037 57.522C805.186 57.27 805.385 57.0717 805.632 56.927C805.879 56.7823 806.159 56.71 806.472 56.71C806.705 56.71 806.922 56.752 807.123 56.836C807.328 56.9153 807.48 57.011 807.578 57.123V57.578C807.531 57.4893 807.452 57.4053 807.34 57.326C807.233 57.2467 807.104 57.1813 806.955 57.13C806.806 57.0787 806.645 57.053 806.472 57.053C806.229 57.053 806.01 57.1113 805.814 57.228C805.623 57.34 805.471 57.4963 805.359 57.697C805.247 57.8977 805.191 58.1287 805.191 58.39ZM809.723 60.07C809.434 60.07 809.177 59.9977 808.953 59.853C808.729 59.7083 808.552 59.51 808.421 59.258C808.295 59.0013 808.232 58.7097 808.232 58.383C808.232 58.0563 808.297 57.767 808.428 57.515C808.559 57.263 808.741 57.067 808.974 56.927C809.207 56.7823 809.476 56.71 809.779 56.71C810.073 56.71 810.33 56.7777 810.549 56.913C810.773 57.0483 810.946 57.2373 811.067 57.48C811.193 57.718 811.256 57.9933 811.256 58.306C811.256 58.334 811.254 58.3643 811.249 58.397C811.249 58.4297 811.247 58.4577 811.242 58.481H808.463V58.166H810.969L810.815 58.383C810.824 58.3597 810.834 58.3293 810.843 58.292C810.857 58.25 810.864 58.2103 810.864 58.173C810.864 57.9537 810.815 57.7577 810.717 57.585C810.624 57.4123 810.495 57.277 810.332 57.179C810.169 57.081 809.984 57.032 809.779 57.032C809.541 57.032 809.333 57.088 809.156 57.2C808.983 57.3073 808.848 57.4613 808.75 57.662C808.652 57.858 808.603 58.0913 808.603 58.362C808.603 58.6373 808.65 58.8777 808.743 59.083C808.841 59.2883 808.976 59.447 809.149 59.559C809.326 59.671 809.532 59.727 809.765 59.727C810.012 59.727 810.227 59.6733 810.409 59.566C810.596 59.4587 810.761 59.2907 810.906 59.062L811.2 59.251C811.018 59.531 810.806 59.7387 810.563 59.874C810.325 60.0047 810.045 60.07 809.723 60.07ZM812.073 59.083C812.12 59.1997 812.183 59.307 812.262 59.405C812.342 59.503 812.442 59.5823 812.563 59.643C812.689 59.7037 812.836 59.734 813.004 59.734C813.2 59.734 813.357 59.685 813.473 59.587C813.595 59.4843 813.655 59.3443 813.655 59.167C813.655 59.0363 813.618 58.929 813.543 58.845C813.469 58.7563 813.371 58.684 813.249 58.628C813.128 58.5673 812.997 58.5137 812.857 58.467C812.708 58.411 812.563 58.348 812.423 58.278C812.283 58.208 812.167 58.1147 812.073 57.998C811.985 57.8767 811.94 57.7203 811.94 57.529C811.94 57.347 811.985 57.1953 812.073 57.074C812.167 56.9527 812.286 56.864 812.43 56.808C812.58 56.7473 812.738 56.717 812.906 56.717C813.088 56.717 813.252 56.7473 813.396 56.808C813.541 56.8687 813.665 56.948 813.767 57.046C813.87 57.144 813.949 57.2537 814.005 57.375L813.704 57.557C813.63 57.417 813.525 57.2957 813.389 57.193C813.254 57.0903 813.079 57.039 812.864 57.039C812.706 57.039 812.57 57.0787 812.458 57.158C812.351 57.2373 812.297 57.354 812.297 57.508C812.297 57.634 812.332 57.739 812.402 57.823C812.472 57.9023 812.566 57.9677 812.682 58.019C812.799 58.0703 812.923 58.1193 813.053 58.166C813.226 58.2313 813.385 58.3037 813.529 58.383C813.679 58.4623 813.798 58.5603 813.886 58.677C813.98 58.7937 814.026 58.943 814.026 59.125C814.026 59.405 813.928 59.6337 813.732 59.811C813.541 59.9837 813.291 60.07 812.983 60.07C812.759 60.07 812.563 60.0303 812.395 59.951C812.232 59.8717 812.099 59.769 811.996 59.643C811.898 59.517 811.826 59.3863 811.779 59.251L812.073 59.083ZM814.897 59.083C814.943 59.1997 815.006 59.307 815.086 59.405C815.165 59.503 815.265 59.5823 815.387 59.643C815.513 59.7037 815.66 59.734 815.828 59.734C816.024 59.734 816.18 59.685 816.297 59.587C816.418 59.4843 816.479 59.3443 816.479 59.167C816.479 59.0363 816.441 58.929 816.367 58.845C816.292 58.7563 816.194 58.684 816.073 58.628C815.951 58.5673 815.821 58.5137 815.681 58.467C815.531 58.411 815.387 58.348 815.247 58.278C815.107 58.208 814.99 58.1147 814.897 57.998C814.808 57.8767 814.764 57.7203 814.764 57.529C814.764 57.347 814.808 57.1953 814.897 57.074C814.99 56.9527 815.109 56.864 815.254 56.808C815.403 56.7473 815.562 56.717 815.73 56.717C815.912 56.717 816.075 56.7473 816.22 56.808C816.364 56.8687 816.488 56.948 816.591 57.046C816.693 57.144 816.773 57.2537 816.829 57.375L816.528 57.557C816.453 57.417 816.348 57.2957 816.213 57.193C816.077 57.0903 815.902 57.039 815.688 57.039C815.529 57.039 815.394 57.0787 815.282 57.158C815.174 57.2373 815.121 57.354 815.121 57.508C815.121 57.634 815.156 57.739 815.226 57.823C815.296 57.9023 815.389 57.9677 815.506 58.019C815.622 58.0703 815.746 58.1193 815.877 58.166C816.049 58.2313 816.208 58.3037 816.353 58.383C816.502 58.4623 816.621 58.5603 816.71 58.677C816.803 58.7937 816.85 58.943 816.85 59.125C816.85 59.405 816.752 59.6337 816.556 59.811C816.364 59.9837 816.115 60.07 815.807 60.07C815.583 60.07 815.387 60.0303 815.219 59.951C815.055 59.8717 814.922 59.769 814.82 59.643C814.722 59.517 814.649 59.3863 814.603 59.251L814.897 59.083ZM820.189 56.78V60H819.825V56.78H820.189ZM821.26 57.207C821.19 57.1557 821.123 57.1183 821.057 57.095C820.997 57.067 820.924 57.053 820.84 57.053C820.682 57.053 820.553 57.0973 820.455 57.186C820.362 57.2747 820.294 57.3937 820.252 57.543C820.21 57.6923 820.189 57.858 820.189 58.04H820.021C820.021 57.7833 820.061 57.557 820.14 57.361C820.22 57.1603 820.327 57.0017 820.462 56.885C820.602 56.7683 820.756 56.71 820.924 56.71C821.027 56.71 821.123 56.7263 821.211 56.759C821.305 56.787 821.389 56.836 821.463 56.906L821.26 57.207ZM822.137 59.034C822.137 59.1927 822.172 59.3257 822.242 59.433C822.317 59.5403 822.415 59.622 822.536 59.678C822.662 59.7293 822.8 59.755 822.949 59.755C823.131 59.755 823.297 59.713 823.446 59.629C823.6 59.545 823.724 59.4213 823.817 59.258C823.911 59.0947 823.957 58.894 823.957 58.656L824.041 58.964C824.041 59.216 823.981 59.4237 823.859 59.587C823.738 59.7503 823.586 59.8717 823.404 59.951C823.222 60.0303 823.038 60.07 822.851 60.07C822.669 60.07 822.494 60.0327 822.326 59.958C822.158 59.8787 822.023 59.7643 821.92 59.615C821.818 59.4657 821.766 59.2767 821.766 59.048C821.766 58.7353 821.874 58.488 822.088 58.306C822.308 58.124 822.604 58.033 822.977 58.033C823.187 58.033 823.367 58.0587 823.516 58.11C823.67 58.1567 823.796 58.2103 823.894 58.271C823.992 58.3317 824.062 58.383 824.104 58.425V58.656C823.946 58.544 823.775 58.4623 823.593 58.411C823.416 58.355 823.229 58.327 823.033 58.327C822.851 58.327 822.693 58.3527 822.557 58.404C822.427 58.4553 822.324 58.5323 822.249 58.635C822.175 58.7377 822.137 58.8707 822.137 59.034ZM822.151 57.368L821.969 57.095C822.091 57.011 822.247 56.927 822.438 56.843C822.634 56.7543 822.875 56.71 823.159 56.71C823.402 56.71 823.61 56.7497 823.782 56.829C823.955 56.9083 824.088 57.0227 824.181 57.172C824.275 57.3213 824.321 57.5033 824.321 57.718V60H823.957V57.767C823.957 57.6737 823.943 57.585 823.915 57.501C823.887 57.4123 823.841 57.333 823.775 57.263C823.715 57.193 823.631 57.137 823.523 57.095C823.416 57.053 823.285 57.032 823.131 57.032C822.973 57.032 822.83 57.0507 822.704 57.088C822.578 57.1253 822.469 57.1697 822.375 57.221C822.287 57.2723 822.212 57.3213 822.151 57.368ZM824.832 56.78H826.246V57.123H824.832V56.78ZM825.357 55.66H825.721V60H825.357V55.66ZM828.071 60.07C827.781 60.07 827.525 59.9977 827.301 59.853C827.077 59.7083 826.899 59.51 826.769 59.258C826.643 59.0013 826.58 58.7097 826.58 58.383C826.58 58.0563 826.645 57.767 826.776 57.515C826.906 57.263 827.088 57.067 827.322 56.927C827.555 56.7823 827.823 56.71 828.127 56.71C828.421 56.71 828.677 56.7777 828.897 56.913C829.121 57.0483 829.293 57.2373 829.415 57.48C829.541 57.718 829.604 57.9933 829.604 58.306C829.604 58.334 829.601 58.3643 829.597 58.397C829.597 58.4297 829.594 58.4577 829.59 58.481H826.811V58.166H829.317L829.163 58.383C829.172 58.3597 829.181 58.3293 829.191 58.292C829.205 58.25 829.212 58.2103 829.212 58.173C829.212 57.9537 829.163 57.7577 829.065 57.585C828.971 57.4123 828.843 57.277 828.68 57.179C828.516 57.081 828.332 57.032 828.127 57.032C827.889 57.032 827.681 57.088 827.504 57.2C827.331 57.3073 827.196 57.4613 827.098 57.662C827 57.858 826.951 58.0913 826.951 58.362C826.951 58.6373 826.997 58.8777 827.091 59.083C827.189 59.2883 827.324 59.447 827.497 59.559C827.674 59.671 827.879 59.727 828.113 59.727C828.36 59.727 828.575 59.6733 828.757 59.566C828.943 59.4587 829.109 59.2907 829.254 59.062L829.548 59.251C829.366 59.531 829.153 59.7387 828.911 59.874C828.673 60.0047 828.393 60.07 828.071 60.07Z" fill="url(#paint10_linear_867_23)"/>
<rect x="400" y="80" width="55" height="53" rx="9" fill="#D9D9D9" fill-opacity="0.89" stroke="white" stroke-width="2"/>
<g clip-path="url(#clip0_867_23)">
<path d="M426.958 104.731L421.758 99.5314C421.446 99.219 421.446 98.7124 421.758 98.4L422.89 97.2686C423.202 96.9562 423.709 96.9562 424.021 97.2686L427.524 100.772L435.027 93.2686C435.339 92.9562 435.846 92.9562 436.158 93.2686L437.29 94.4C437.602 94.7124 437.602 95.2189 437.29 95.5314L428.09 104.731C427.777 105.044 427.271 105.044 426.958 104.731Z" fill="url(#paint11_linear_867_23)"/>
</g>
<g clip-path="url(#clip1_867_23)">
<path d="M430.201 105.843L435.401 100.643C435.714 100.331 436.22 100.331 436.533 100.643L437.664 101.775C437.976 102.087 437.976 102.594 437.664 102.906L434.161 106.409L441.664 113.912C441.976 114.224 441.976 114.731 441.664 115.043L440.533 116.175C440.22 116.487 439.714 116.487 439.401 116.175L430.201 106.975C429.889 106.662 429.889 106.156 430.201 105.843Z" fill="url(#paint12_linear_867_23)"/>
</g>
<g clip-path="url(#clip2_867_23)">
<path d="M428.282 108.462L433.482 113.662C433.795 113.974 433.795 114.481 433.482 114.793L432.351 115.925C432.039 116.237 431.532 116.237 431.22 115.925L427.717 112.422L420.214 119.925C419.901 120.237 419.395 120.237 419.082 119.925L417.951 118.793C417.639 118.481 417.639 117.974 417.951 117.662L427.151 108.462C427.464 108.149 427.97 108.149 428.282 108.462Z" fill="url(#paint13_linear_867_23)"/>
</g>
<g clip-path="url(#clip3_867_23)">
<path d="M425.731 107.042L420.531 112.242C420.219 112.554 419.712 112.554 419.4 112.242L418.269 111.11C417.956 110.798 417.956 110.291 418.269 109.979L421.772 106.476L414.269 98.9729C413.956 98.6605 413.956 98.1539 414.269 97.8415L415.4 96.7102C415.712 96.3977 416.219 96.3977 416.531 96.7102L425.731 105.91C426.044 106.223 426.044 106.729 425.731 107.042Z" fill="url(#paint14_linear_867_23)"/>
</g>
<rect x="79.5" y="0.5" width="69" height="69" rx="1.5" fill="white" stroke="#D9D9D9"/>
<path d="M101.5 34.9996C101.499 39.7896 104.236 44.1588 108.545 46.2492L102.582 29.9127C101.867 31.5132 101.499 33.2467 101.5 34.9996ZM114.22 36.0931L110.469 46.9909C112.987 47.7324 115.675 47.6627 118.151 46.7915C118.116 46.7367 118.086 46.6791 118.062 46.6192L114.22 36.0931ZM122.439 34.3693C122.422 33.1468 122.065 31.9531 121.408 30.9221C120.736 30.0767 120.311 29.0621 120.18 27.9903C120.15 26.7991 121.088 25.8074 122.279 25.7719C122.335 25.7719 122.387 25.7785 122.441 25.7819C117.352 21.1199 109.447 21.4665 104.785 26.5559C104.333 27.0483 103.923 27.576 103.556 28.134C103.849 28.1433 104.126 28.1492 104.36 28.1492C105.668 28.1492 107.692 27.9902 107.692 27.9902C107.977 27.9737 108.221 28.1913 108.238 28.4762C108.254 28.7533 108.048 28.9935 107.772 29.0203C107.772 29.0203 107.094 29.0996 106.341 29.1391L110.893 42.6788L113.629 34.4749L111.682 29.1392C111.008 29.0997 110.37 29.0204 110.37 29.0204C110.086 28.993 109.878 28.7404 109.906 28.4564C109.933 28.18 110.173 27.9742 110.45 27.9903C110.45 27.9903 112.514 28.1493 113.742 28.1493C115.049 28.1493 117.074 27.9903 117.074 27.9903C117.359 27.9736 117.603 28.191 117.62 28.4759C117.636 28.7533 117.43 28.9939 117.154 29.0204C117.154 29.0204 116.475 29.0997 115.723 29.1392L120.24 42.5758L121.53 38.4897C122.033 37.1683 122.34 35.7799 122.439 34.3693ZM125.053 30.2883C125.031 31.8284 124.708 33.3495 124.102 34.7654L120.285 45.8038C126.14 42.3977 128.217 34.9476 124.969 29.0031C125.026 29.4291 125.054 29.8585 125.053 30.2883ZM114 20.0002C105.716 20.0002 99 26.7159 99 35.0002C99 43.2844 105.716 50.0002 114 50.0002C122.284 50.0002 129 43.2844 129 35.0002C129 26.7159 122.284 20.0002 114 20.0002ZM119.488 47.9924C115.098 49.8501 110.067 49.361 106.117 46.6927C103.85 45.162 102.075 43.0068 101.008 40.4882C99.1494 36.0985 99.6387 31.0668 102.308 27.1173C103.838 24.8499 105.993 23.075 108.512 22.0078C112.902 20.1502 117.933 20.6392 121.883 23.3076C124.15 24.8383 125.925 26.9934 126.992 29.5121C128.851 33.9017 128.361 38.9335 125.692 42.883C124.162 45.1504 122.007 46.9253 119.488 47.9924Z" fill="#6563FF"/>
<rect x="0.5" y="23.5" width="69" height="69" rx="1.5" fill="white" stroke="#D9D9D9"/>
<path d="M50.75 52.15L47 54.2125L43.25 57.775V70H48.5C49.7428 70 50.75 68.9927 50.75 67.75V52.15Z" fill="#4CAF50"/>
<path d="M19.25 52.15L21.9605 53.4325L26.75 57.775V70H21.5C20.2573 70 19.25 68.9927 19.25 67.75V52.15Z" fill="#1E88E5"/>
<path d="M43.25 48.4L35 54.5875L26.75 48.4L26 52.75L26.75 57.775L35 63.9625L43.25 57.775L44 52.75L43.25 48.4Z" fill="#E53935"/>
<path d="M19.25 49.2235V52.15L26.75 57.775V48.4L24.407 46.6443C23.849 46.2258 23.171 46 22.4735 46C20.693 46 19.25 47.443 19.25 49.2235Z" fill="#C62828"/>
<path d="M50.75 49.2235V52.15L43.25 57.775V48.4L45.593 46.6443C46.151 46.2258 46.829 46 47.5265 46C49.307 46 50.75 47.443 50.75 49.2235Z" fill="#FBC02D"/>
<rect x="77.5" y="80.5" width="69" height="69" rx="1.5" fill="white" stroke="#D9D9D9"/>
<g clip-path="url(#clip4_867_23)">
<path fill-rule="evenodd" clip-rule="evenodd" d="M113.814 102.503C113.814 102.381 113.815 102.26 113.815 102.129C113.815 100.981 113.656 100.057 113.402 99.3242C114.424 99.4525 115.105 100.621 115.542 101.966C115.03 102.126 114.447 102.307 113.814 102.503ZM111.557 113.945C111.557 113.945 110.362 113.303 108.896 113.303C106.747 113.303 106.639 114.659 106.639 115C106.639 116.864 111.472 117.579 111.472 121.944C111.472 125.377 109.305 127.589 106.382 127.589C102.875 127.589 101.082 125.395 101.082 125.395L102.021 122.278C102.021 122.278 103.865 123.868 105.421 123.868C106.436 123.868 106.85 123.064 106.85 122.477C106.85 120.046 102.884 119.937 102.884 115.942C102.884 112.58 105.285 109.327 110.132 109.327C112 109.327 112.923 109.864 112.923 109.864L111.557 113.945ZM110.761 98.2454C110.962 98.2454 111.162 98.314 111.355 98.4468C109.874 99.1465 108.288 100.91 107.617 104.432C106.637 104.737 105.68 105.035 104.795 105.31C105.579 102.624 107.443 98.2454 110.761 98.2454ZM112.604 102.679C112.604 102.75 112.603 102.815 112.603 102.88C111.478 103.23 110.256 103.611 109.032 103.992C109.719 101.326 111.008 100.037 112.135 99.5515C112.418 100.267 112.604 101.294 112.604 102.679ZM117.923 101.246C117.849 101.256 117.786 101.27 117.742 101.283C117.718 101.29 117.324 101.412 116.672 101.615C116.033 99.7675 114.906 98.0699 112.923 98.0699C112.868 98.0699 112.811 98.0721 112.755 98.0755C112.191 97.3262 111.492 97 110.889 97C106.269 97 104.061 102.805 103.37 105.754C101.574 106.313 100.299 106.71 100.137 106.762C99.1337 107.078 99.1022 107.109 98.9714 108.058C98.8718 108.777 96.25 129.154 96.25 129.154L116.68 133L116.701 132.995L117.923 101.246ZM119.385 102.246C119.975 102.835 120.644 103.501 120.644 103.501C120.644 103.501 123.397 103.706 123.526 103.717C123.658 103.729 123.815 103.829 123.84 104.01C123.865 104.191 127.75 130.594 127.75 130.594L118.215 132.666L119.385 102.246Z" fill="#81BF37"/>
</g>
<rect x="158.5" y="121.5" width="69" height="69" rx="1.5" fill="white" stroke="#D9D9D9"/>
<g clip-path="url(#clip5_867_23)">
<path d="M182.564 160.749C182.564 162.831 180.863 164.531 178.782 164.531C176.7 164.531 175 162.831 175 160.749C175 158.668 176.7 156.967 178.782 156.967H182.564V160.749Z" fill="#E01E5A"/>
<path d="M184.469 160.749C184.469 158.668 186.169 156.967 188.251 156.967C190.332 156.967 192.033 158.668 192.033 160.749V170.218C192.033 172.3 190.332 174 188.251 174C186.169 174 184.469 172.3 184.469 170.218V160.749Z" fill="#E01E5A"/>
<path d="M188.251 145.564C186.169 145.564 184.469 143.863 184.469 141.782C184.469 139.7 186.169 138 188.251 138C190.332 138 192.033 139.7 192.033 141.782V145.564H188.251Z" fill="#36C5F0"/>
<path d="M188.251 147.469C190.332 147.469 192.033 149.169 192.033 151.251C192.033 153.332 190.332 155.033 188.251 155.033H178.782C176.7 155.033 175 153.332 175 151.251C175 149.169 176.7 147.469 178.782 147.469H188.251Z" fill="#36C5F0"/>
<path d="M203.436 151.251C203.436 149.169 205.137 147.469 207.218 147.469C209.3 147.469 211 149.169 211 151.251C211 153.332 209.3 155.033 207.218 155.033H203.436V151.251Z" fill="#2EB67D"/>
<path d="M201.531 151.251C201.531 153.332 199.831 155.033 197.749 155.033C195.668 155.033 193.967 153.332 193.967 151.251V141.782C193.967 139.7 195.668 138 197.749 138C199.831 138 201.531 139.7 201.531 141.782V151.251Z" fill="#2EB67D"/>
<path d="M197.749 166.436C199.831 166.436 201.531 168.137 201.531 170.218C201.531 172.3 199.831 174 197.749 174C195.668 174 193.967 172.3 193.967 170.218V166.436H197.749Z" fill="#ECB22E"/>
<path d="M197.749 164.531C195.668 164.531 193.967 162.831 193.967 160.749C193.967 158.668 195.668 156.967 197.749 156.967H207.218C209.3 156.967 211 158.668 211 160.749C211 162.831 209.3 164.531 207.218 164.531H197.749Z" fill="#ECB22E"/>
</g>
<rect x="0.5" y="103.5" width="69" height="69" rx="1.5" fill="white" stroke="#D9D9D9"/>
<path d="M31.0001 135.272H29.5179C29.5567 134.909 29.7046 134.279 30.2851 134.279C30.6648 134.279 30.9584 134.547 31.0001 135.272ZM38.6872 134.296C38.6607 134.296 37.8935 134.171 37.8935 135.702C37.8935 137.233 38.6602 137.108 38.6872 137.108C39.4184 137.108 39.4809 136.156 39.4809 135.702C39.4809 134.172 38.7125 134.296 38.6872 134.296ZM25.0061 135.966C24.9444 136.027 24.8954 136.105 24.8632 136.194C24.8309 136.283 24.8165 136.381 24.821 136.479C24.821 136.815 24.938 136.904 25.0061 136.975C25.2704 137.235 25.8537 137.124 26.1834 137.041V135.85C25.8841 135.775 25.2423 135.712 25.0061 135.966ZM53 134.312C53 140.47 48.5 145.168 43.6985 143.905C42.6652 146.226 39.7199 148.88 36.2622 146.832C33.947 153.586 26.2559 153.314 24.2354 146.469C17.5012 148.149 14.1768 136.74 20.0015 132.457C18.0468 126.872 21.275 120.25 26.4314 120.25C27.5038 120.251 28.5615 120.56 29.5229 121.154C30.4843 121.748 31.3234 122.61 31.9754 123.674C33.1398 122.17 34.7542 121.227 36.5401 121.227C38.9217 121.227 40.9839 122.88 42.0976 125.345C47.3187 122.485 53 127.33 53 134.312ZM23.7753 136.548C23.7753 135.722 23.1177 135.482 22.7701 135.341C22.4737 135.193 22.0158 135.094 22.0158 134.713C22.0158 134.047 22.9721 134.244 23.4316 134.564C23.4316 134.564 23.4974 134.613 23.5239 134.53C23.5374 134.481 23.6566 134.068 23.6696 134.018C23.6746 133.998 23.6733 133.977 23.666 133.958C23.6586 133.94 23.6458 133.926 23.6302 133.919C22.9366 133.382 21.3408 133.32 21.3408 134.812C21.3408 135.688 21.9871 135.897 22.3466 136.019C22.6121 136.13 23.0874 136.23 23.0874 136.631C23.0874 136.912 22.8888 137.127 22.5716 137.127C22.1861 137.126 21.8112 136.97 21.5028 136.681C21.4764 136.664 21.4229 136.631 21.41 136.731L21.275 137.256C21.2486 137.322 21.2879 137.339 21.2879 137.355C21.3864 137.453 21.8673 137.818 22.5716 137.818C23.3124 137.818 23.7753 137.322 23.7753 136.545V136.548ZM25.5753 133.555C25.0055 133.555 24.5257 133.777 24.3716 133.919C24.3654 133.924 24.3601 133.931 24.3561 133.939C24.3521 133.947 24.3494 133.956 24.3481 133.965C24.3469 133.974 24.3471 133.983 24.3488 133.993C24.3505 134.002 24.3537 134.01 24.3581 134.018L24.5037 134.514C24.5077 134.532 24.5168 134.546 24.5291 134.555C24.5415 134.565 24.5561 134.567 24.5701 134.564C24.6067 134.564 24.9526 134.282 25.5224 134.282C25.7474 134.282 25.9196 134.332 26.0388 134.448C26.2413 134.645 26.2109 135.031 26.2109 135.192C25.9415 135.171 25.136 134.95 24.5566 135.456C24.4245 135.57 24.3175 135.723 24.2453 135.901C24.1731 136.08 24.1382 136.279 24.1437 136.479C24.1437 136.894 24.2287 137.21 24.5144 137.488C25.2029 138.062 26.5552 137.628 26.6576 137.587C26.7464 137.564 26.8561 137.541 26.8561 137.455V135.073C26.8584 134.748 26.8741 133.551 25.5747 133.551L25.5753 133.555ZM28.1937 132.079C28.1943 132.068 28.193 132.057 28.1899 132.047C28.1867 132.036 28.1819 132.027 28.1756 132.019C28.1693 132.011 28.1618 132.005 28.1534 132.001C28.1451 131.997 28.1362 131.996 28.1274 131.996H27.575C27.5662 131.996 27.5573 131.998 27.5491 132.001C27.5409 132.005 27.5334 132.012 27.5272 132.019C27.5209 132.027 27.5161 132.037 27.513 132.047C27.5099 132.057 27.5086 132.068 27.5092 132.079V137.634C27.5086 137.645 27.5099 137.656 27.513 137.666C27.5161 137.677 27.5209 137.686 27.5272 137.694C27.5334 137.702 27.5409 137.708 27.5491 137.712C27.5573 137.716 27.5662 137.718 27.575 137.717H28.1307C28.1396 137.718 28.1485 137.716 28.1568 137.712C28.1651 137.708 28.1727 137.702 28.179 137.694C28.1852 137.686 28.1901 137.677 28.1932 137.667C28.1964 137.656 28.1977 137.645 28.1971 137.634L28.1937 132.079ZM31.3297 134.114C31.2116 133.951 30.9477 133.584 30.3369 133.584C30.1394 133.584 29.5404 133.6 29.1725 134.213C28.8153 134.749 28.8024 135.486 28.8024 135.718C28.8024 135.937 28.8108 136.721 29.1995 137.207C29.348 137.411 29.7091 137.785 30.4826 137.785C31.0912 137.785 31.409 137.62 31.5277 137.521C31.5541 137.504 31.5676 137.471 31.5412 137.389L31.409 136.908C31.4022 136.89 31.3907 136.875 31.3762 136.866C31.3618 136.857 31.3454 136.855 31.3297 136.859C31.184 136.925 30.9725 137.058 30.4696 137.058C29.4897 137.058 29.5218 136.021 29.5167 135.883H31.6076C31.6228 135.883 31.6376 135.876 31.6495 135.864C31.6614 135.852 31.6698 135.836 31.6734 135.817C31.6571 135.817 31.7898 134.784 31.3308 134.114H31.3297ZM33.3935 137.818C34.1343 137.818 34.5978 137.322 34.5978 136.545C34.5978 135.718 33.9397 135.478 33.5921 135.338C33.3592 135.221 32.8377 135.1 32.8377 134.709C32.8377 134.445 33.0228 134.263 33.3142 134.263C33.6414 134.271 33.9627 134.373 34.2536 134.56C34.2536 134.56 34.3199 134.61 34.3464 134.527C34.3593 134.478 34.4786 134.064 34.4915 134.014C34.4965 133.995 34.4952 133.973 34.4879 133.955C34.4805 133.936 34.4677 133.922 34.4521 133.915C34.0072 133.571 33.5105 133.568 33.3142 133.568C32.6392 133.568 32.1633 134.08 32.1633 134.808C32.1633 135.684 32.8091 135.894 33.1685 136.015C33.5122 136.156 33.9093 136.245 33.9093 136.627C33.9093 136.908 33.7113 137.124 33.3935 137.124C33.0081 137.123 32.6332 136.966 32.3247 136.677C32.3168 136.669 32.307 136.663 32.2966 136.661C32.2862 136.659 32.2756 136.661 32.2659 136.666C32.2562 136.671 32.2479 136.68 32.2419 136.69C32.2359 136.701 32.2324 136.714 32.2319 136.727L32.0997 137.256C32.0733 137.322 32.1127 137.339 32.1127 137.355C32.2094 137.453 32.6937 137.818 33.3946 137.818H33.3935ZM37.0863 133.75C37.0863 133.7 37.0728 133.667 37.0199 133.667H36.3584C36.3584 133.657 36.4113 133.038 36.6099 132.79C36.8439 132.498 37.2714 132.675 37.2849 132.675C37.3507 132.708 37.3642 132.675 37.3771 132.642L37.5363 132.096C37.5757 132.029 37.5363 132.013 37.5228 131.996C37.2365 131.856 36.5469 131.795 36.1469 132.295C35.8387 132.68 35.7532 133.273 35.6969 133.667H35.2205C35.2034 133.669 35.1874 133.678 35.1754 133.693C35.1633 133.709 35.156 133.729 35.1547 133.75L35.0748 134.296C35.0748 134.345 35.0883 134.378 35.1412 134.378H35.6041C35.1254 137.746 35.1119 137.908 35.0219 138.282C34.9612 138.536 34.8369 138.767 34.6912 138.827C34.6861 138.827 34.4729 138.945 34.1489 138.81C34.1489 138.81 34.0961 138.777 34.0696 138.86C34.0561 138.91 33.9239 139.34 33.9104 139.39C33.8969 139.44 33.9104 139.489 33.9369 139.489C34.2243 139.63 34.6681 139.613 34.9426 139.489C35.2959 139.329 35.4894 138.934 35.5912 138.579C35.7459 138.037 35.7492 137.891 36.2527 134.379H36.9406C36.9578 134.377 36.9738 134.368 36.986 134.352C36.9981 134.337 37.0056 134.317 37.007 134.296L37.0863 133.75ZM40.0895 134.875C40.058 134.757 39.8026 133.602 38.6737 133.602C37.8159 133.602 37.3799 134.305 37.2584 134.875C37.2022 135.086 37.0796 135.859 37.2584 136.529C37.2635 136.55 37.5065 137.803 38.6737 137.803C39.5146 137.803 39.9618 137.127 40.0895 136.529C40.2701 135.853 40.1463 135.086 40.0895 134.875ZM42.6432 133.701C42.362 133.585 41.7084 133.567 41.3996 134.081V133.767C41.4001 133.756 41.3987 133.745 41.3955 133.735C41.3923 133.724 41.3875 133.715 41.3812 133.707C41.3749 133.699 41.3674 133.693 41.3591 133.689C41.3508 133.686 41.342 133.684 41.3332 133.685H40.8044C40.7956 133.684 40.7868 133.686 40.7785 133.689C40.7702 133.693 40.7627 133.699 40.7564 133.707C40.7502 133.715 40.7453 133.724 40.7421 133.735C40.7389 133.745 40.7376 133.756 40.7381 133.767V137.654C40.7376 137.665 40.739 137.676 40.7421 137.686C40.7453 137.697 40.7502 137.706 40.7564 137.714C40.7627 137.722 40.7702 137.728 40.7785 137.732C40.7867 137.736 40.7956 137.737 40.8044 137.737H41.3467C41.3555 137.737 41.3644 137.736 41.3727 137.732C41.3809 137.728 41.3884 137.722 41.3947 137.714C41.401 137.706 41.4058 137.697 41.409 137.686C41.4122 137.676 41.4135 137.665 41.4131 137.654V135.701C41.4131 135.497 41.4159 134.902 41.6639 134.643C41.9396 134.298 42.3389 134.407 42.4182 134.428C42.4351 134.427 42.4516 134.421 42.4656 134.409C42.4797 134.398 42.4908 134.381 42.4976 134.362C42.5636 134.179 42.621 133.991 42.6697 133.799C42.6753 133.781 42.6757 133.762 42.6708 133.744C42.666 133.726 42.6562 133.71 42.6432 133.7V133.701ZM45.2763 137.505L45.1571 136.992C45.1306 136.909 45.0777 136.942 45.0777 136.942C44.8398 137.07 44.5068 137.075 44.4427 137.075C44.1817 137.075 43.4769 136.996 43.4769 135.686C43.4769 135.248 43.5809 134.296 44.4033 134.296C44.623 134.289 44.842 134.329 45.0513 134.412C45.0513 134.412 45.1042 134.445 45.1177 134.362C45.1706 134.18 45.2099 134.048 45.2634 133.833C45.2763 133.767 45.2369 133.751 45.2234 133.751C44.5715 133.479 43.9668 133.573 43.6619 133.751C43.5725 133.803 42.749 134.207 42.749 135.686C42.749 135.89 42.7164 137.803 44.3769 137.803C44.675 137.802 44.9707 137.735 45.2499 137.604C45.262 137.593 45.271 137.577 45.2757 137.559C45.2805 137.541 45.2807 137.522 45.2763 137.504V137.505ZM48.3065 134.726C48.2615 134.515 48.0044 133.585 47.0493 133.585C46.1493 133.585 45.7263 134.296 45.6071 134.892C45.5422 135.16 45.5109 135.439 45.5142 135.719C45.5142 137.538 46.574 137.786 47.195 137.786C47.8036 137.786 48.1209 137.621 48.2401 137.522C48.2666 137.505 48.2801 137.472 48.2536 137.389L48.1209 136.909C48.1141 136.891 48.1025 136.876 48.0881 136.867C48.0737 136.858 48.0573 136.856 48.0416 136.86C47.8959 136.926 47.6844 137.058 47.1815 137.058C46.2016 137.058 46.2337 136.022 46.2292 135.884H48.3194C48.3347 135.884 48.3495 135.877 48.3615 135.865C48.3735 135.853 48.382 135.836 48.3858 135.818C48.3723 135.817 48.4387 135.321 48.3065 134.725V134.726ZM46.9964 134.279C46.4154 134.279 46.2652 134.912 46.2292 135.272H47.7125C47.663 134.434 47.2839 134.279 46.9964 134.279V134.279Z" fill="black"/>
<rect x="79.5" y="160.5" width="69" height="69" rx="1.5" fill="white" stroke="#D9D9D9"/>
<path d="M113.619 196.116C118.44 196.059 122.078 194.141 123.611 189.676C125.152 185.34 124.759 181.332 120.473 179.67C117.699 178.593 116.786 178.857 105.924 178.857C105.218 178.857 104.604 179.377 104.497 180.062L100.318 206.586C100.247 207.107 100.639 207.577 101.181 207.577H106.501C106.644 207.577 106.694 207.527 106.715 207.399C107.008 205.595 107.999 199.211 108.249 197.842C108.662 195.617 110.524 196.166 113.619 196.116Z" fill="#002D8A"/>
<path d="M125.772 187.579C125.644 187.486 125.594 187.451 125.558 187.672C125.416 188.485 125.195 189.277 124.931 190.068C122.085 198.184 114.197 197.478 110.346 197.478C109.91 197.478 109.625 197.714 109.568 198.149C107.956 208.162 107.635 210.252 107.635 210.252C107.564 210.758 107.885 211.172 108.391 211.172H112.92C113.534 211.172 114.04 210.722 114.161 210.109C114.211 209.724 114.083 210.544 115.188 203.598C115.516 202.029 116.208 202.193 117.278 202.193C122.342 202.193 126.293 200.139 127.469 194.184C127.933 191.701 127.798 189.091 125.772 187.579Z" fill="#019BE1"/>
<path d="M777.278 31.676V29.354L782.804 28.184V41H780.302V30.884L777.278 31.676ZM795.282 36.932C795.282 37.676 795.144 38.318 794.868 38.858C794.592 39.398 794.22 39.842 793.752 40.19C793.284 40.538 792.762 40.796 792.186 40.964C791.61 41.132 791.016 41.216 790.404 41.216C789.636 41.216 788.946 41.126 788.334 40.946C787.734 40.766 787.206 40.532 786.75 40.244C786.294 39.944 785.892 39.62 785.544 39.272L786.75 37.274C787.05 37.574 787.374 37.844 787.722 38.084C788.082 38.324 788.454 38.516 788.838 38.66C789.222 38.792 789.588 38.858 789.936 38.858C790.476 38.858 790.932 38.774 791.304 38.606C791.688 38.438 791.982 38.198 792.186 37.886C792.39 37.562 792.492 37.166 792.492 36.698C792.492 36.242 792.372 35.858 792.132 35.546C791.904 35.234 791.592 35 791.196 34.844C790.812 34.676 790.392 34.592 789.936 34.592C789.6 34.592 789.246 34.622 788.874 34.682C788.502 34.73 788.118 34.82 787.722 34.952C787.338 35.072 786.93 35.252 786.498 35.492L788.226 28.4H795.084V30.632H790.134L789.378 33.224C789.69 33.056 790.02 32.942 790.368 32.882C790.728 32.81 791.094 32.774 791.466 32.774C792.15 32.774 792.78 32.942 793.356 33.278C793.932 33.614 794.394 34.094 794.742 34.718C795.102 35.33 795.282 36.068 795.282 36.932ZM799.226 34.7C799.226 35.336 799.286 35.918 799.406 36.446C799.526 36.962 799.7 37.412 799.928 37.796C800.156 38.168 800.426 38.456 800.738 38.66C801.05 38.864 801.398 38.966 801.782 38.966C802.178 38.966 802.532 38.864 802.844 38.66C803.156 38.456 803.426 38.168 803.654 37.796C803.882 37.412 804.056 36.962 804.176 36.446C804.296 35.918 804.356 35.336 804.356 34.7C804.356 34.064 804.296 33.488 804.176 32.972C804.056 32.444 803.882 31.994 803.654 31.622C803.426 31.238 803.156 30.944 802.844 30.74C802.532 30.536 802.178 30.434 801.782 30.434C801.398 30.434 801.05 30.536 800.738 30.74C800.426 30.944 800.156 31.238 799.928 31.622C799.7 31.994 799.526 32.444 799.406 32.972C799.286 33.488 799.226 34.064 799.226 34.7ZM796.724 34.7C796.724 33.368 796.934 32.216 797.354 31.244C797.786 30.272 798.38 29.522 799.136 28.994C799.904 28.454 800.786 28.184 801.782 28.184C802.814 28.184 803.708 28.454 804.464 28.994C805.22 29.522 805.808 30.272 806.228 31.244C806.648 32.216 806.858 33.368 806.858 34.7C806.858 36.032 806.648 37.184 806.228 38.156C805.808 39.128 805.22 39.884 804.464 40.424C803.708 40.952 802.814 41.216 801.782 41.216C800.786 41.216 799.904 40.952 799.136 40.424C798.38 39.884 797.786 39.128 797.354 38.156C796.934 37.184 796.724 36.032 796.724 34.7ZM808.038 31.298C808.038 30.698 808.176 30.158 808.452 29.678C808.74 29.198 809.13 28.82 809.622 28.544C810.114 28.256 810.666 28.112 811.278 28.112C811.902 28.112 812.454 28.256 812.934 28.544C813.426 28.82 813.81 29.198 814.086 29.678C814.362 30.158 814.5 30.698 814.5 31.298C814.5 31.874 814.362 32.408 814.086 32.9C813.81 33.38 813.426 33.764 812.934 34.052C812.454 34.34 811.902 34.484 811.278 34.484C810.666 34.484 810.114 34.34 809.622 34.052C809.13 33.764 808.74 33.38 808.452 32.9C808.176 32.408 808.038 31.874 808.038 31.298ZM809.982 31.298C809.982 31.538 810.036 31.766 810.144 31.982C810.252 32.186 810.402 32.348 810.594 32.468C810.786 32.588 811.014 32.648 811.278 32.648C811.542 32.648 811.764 32.588 811.944 32.468C812.136 32.348 812.286 32.186 812.394 31.982C812.502 31.766 812.556 31.538 812.556 31.298C812.556 31.046 812.502 30.818 812.394 30.614C812.286 30.41 812.136 30.248 811.944 30.128C811.764 29.996 811.542 29.93 811.278 29.93C811.014 29.93 810.786 29.996 810.594 30.128C810.402 30.248 810.252 30.41 810.144 30.614C810.036 30.818 809.982 31.046 809.982 31.298ZM816.228 38.102C816.228 37.514 816.366 36.98 816.642 36.5C816.93 36.008 817.32 35.624 817.812 35.348C818.304 35.06 818.856 34.916 819.468 34.916C820.092 34.916 820.644 35.06 821.124 35.348C821.616 35.624 822 36.008 822.276 36.5C822.552 36.98 822.69 37.514 822.69 38.102C822.69 38.69 822.552 39.224 822.276 39.704C822 40.184 821.616 40.568 821.124 40.856C820.644 41.144 820.092 41.288 819.468 41.288C818.856 41.288 818.304 41.144 817.812 40.856C817.32 40.568 816.93 40.184 816.642 39.704C816.366 39.224 816.228 38.69 816.228 38.102ZM818.172 38.102C818.172 38.342 818.226 38.57 818.334 38.786C818.442 38.99 818.592 39.152 818.784 39.272C818.976 39.392 819.204 39.452 819.468 39.452C819.732 39.452 819.954 39.392 820.134 39.272C820.326 39.152 820.476 38.99 820.584 38.786C820.692 38.57 820.746 38.342 820.746 38.102C820.746 37.85 820.692 37.622 820.584 37.418C820.476 37.214 820.326 37.052 820.134 36.932C819.954 36.812 819.732 36.752 819.468 36.752C819.204 36.752 818.976 36.812 818.784 36.932C818.592 37.052 818.442 37.214 818.334 37.418C818.226 37.622 818.172 37.85 818.172 38.102ZM818.784 28.4H821.142L811.962 41H809.604L818.784 28.4Z" fill="url(#paint15_linear_867_23)"/>
<path d="M837.692 29.5428L831.222 31.1067C830.684 31.2366 830.355 31.776 830.485 32.3135C830.615 32.851 831.154 33.1803 831.691 33.0504L834.843 32.2886L830.89 38.7628C830.602 39.2339 830.75 39.8492 831.222 40.1374C831.694 40.4256 832.309 40.2763 832.596 39.8052L836.55 33.331L837.312 36.483C837.377 36.7511 837.544 36.9681 837.763 37.1016C837.981 37.235 838.251 37.2848 838.519 37.22C839.056 37.0901 839.386 36.5507 839.256 36.0132L837.692 29.5428Z" fill="black"/>
<rect x="158.5" y="41.5" width="69" height="69" rx="1.5" fill="white" stroke="#D9D9D9"/>
<path fill-rule="evenodd" clip-rule="evenodd" d="M193 58C183.059 58 175 66.0589 175 76C175 79.2275 175.851 82.2611 177.342 84.8833L175.092 91.6308C174.877 92.2775 175.045 92.9907 175.527 93.4727C176.009 93.9547 176.722 94.1232 177.369 93.9076L184.117 91.6585C186.739 93.1489 189.772 93.9999 193 93.9999C202.941 93.9999 211 85.941 211 76C211 66.0589 202.941 58 193 58ZM186.7 67C186.7 66.0059 187.506 65.2 188.5 65.2H194.8C198.279 65.2 201.1 68.0206 201.1 71.5C201.1 73.2627 200.376 74.8564 199.209 76C200.376 77.1435 201.1 78.7372 201.1 80.5C201.1 83.9793 198.279 86.7999 194.8 86.7999H188.5C187.506 86.7999 186.7 85.9941 186.7 84.9999V76V67ZM190.3 74.2H194.8C196.291 74.2 197.5 72.9911 197.5 71.5C197.5 70.0088 196.291 68.8 194.8 68.8H190.3V74.2ZM190.3 77.8V83.1999H194.8C196.291 83.1999 197.5 81.9911 197.5 80.5C197.5 79.0088 196.291 77.8 194.8 77.8H190.3Z" fill="#37B84B"/>
<defs>
<filter id="filter0_d_867_23" x="561" y="25" width="282" height="187" filterUnits="userSpaceOnUse" color-interpolation-filters="sRGB">
<feFlood flood-opacity="0" result="BackgroundImageFix"/>
<feColorMatrix in="SourceAlpha" type="matrix" values="0 0 0 0 0 0 0 0 0 0 0 0 0 0 0 0 0 0 127 0" result="hardAlpha"/>
<feOffset dy="4"/>
<feGaussianBlur stdDeviation="2"/>
<feComposite in2="hardAlpha" operator="out"/>
<feColorMatrix type="matrix" values="0 0 0 0 0 0 0 0 0 0 0 0 0 0 0 0 0 0 0.25 0"/>
<feBlend mode="normal" in2="BackgroundImageFix" result="effect1_dropShadow_867_23"/>
<feBlend mode="normal" in="SourceGraphic" in2="effect1_dropShadow_867_23" result="shape"/>
</filter>
<linearGradient id="paint0_linear_867_23" x1="647" y1="44" x2="647" y2="62" gradientUnits="userSpaceOnUse">
<stop/>
<stop offset="1" stop-color="#666666"/>
</linearGradient>
<linearGradient id="paint1_linear_867_23" x1="589.5" y1="153" x2="589.5" y2="161" gradientUnits="userSpaceOnUse">
<stop/>
<stop offset="1" stop-color="#666666"/>
</linearGradient>
<linearGradient id="paint2_linear_867_23" x1="594" y1="137" x2="594" y2="144" gradientUnits="userSpaceOnUse">
<stop/>
<stop offset="1" stop-color="#666666"/>
</linearGradient>
<linearGradient id="paint3_linear_867_23" x1="638.5" y1="174" x2="638.5" y2="181" gradientUnits="userSpaceOnUse">
<stop/>
<stop offset="1" stop-color="#666666"/>
</linearGradient>
<linearGradient id="paint4_linear_867_23" x1="685.5" y1="174" x2="685.5" y2="181" gradientUnits="userSpaceOnUse">
<stop/>
<stop offset="1" stop-color="#666666"/>
</linearGradient>
<linearGradient id="paint5_linear_867_23" x1="733" y1="174" x2="733" y2="181" gradientUnits="userSpaceOnUse">
<stop/>
<stop offset="1" stop-color="#666666"/>
</linearGradient>
<linearGradient id="paint6_linear_867_23" x1="780.5" y1="174" x2="780.5" y2="181" gradientUnits="userSpaceOnUse">
<stop/>
<stop offset="1" stop-color="#666666"/>
</linearGradient>
<linearGradient id="paint7_linear_867_23" x1="594.5" y1="121" x2="594.5" y2="128" gradientUnits="userSpaceOnUse">
<stop/>
<stop offset="1" stop-color="#666666"/>
</linearGradient>
<linearGradient id="paint8_linear_867_23" x1="594.5" y1="105" x2="594.5" y2="112" gradientUnits="userSpaceOnUse">
<stop/>
<stop offset="1" stop-color="#666666"/>
</linearGradient>
<linearGradient id="paint9_linear_867_23" x1="594.5" y1="89" x2="594.5" y2="96" gradientUnits="userSpaceOnUse">
<stop/>
<stop offset="1" stop-color="#666666"/>
</linearGradient>
<linearGradient id="paint10_linear_867_23" x1="812.5" y1="53" x2="812.5" y2="60" gradientUnits="userSpaceOnUse">
<stop/>
<stop offset="1" stop-color="#666666"/>
</linearGradient>
<linearGradient id="paint11_linear_867_23" x1="429.524" y1="93.0343" x2="429.524" y2="104.966" gradientUnits="userSpaceOnUse">
<stop/>
<stop offset="1" stop-color="#666666"/>
</linearGradient>
<linearGradient id="paint12_linear_867_23" x1="441.898" y1="108.409" x2="429.967" y2="108.409" gradientUnits="userSpaceOnUse">
<stop/>
<stop offset="1" stop-color="#666666"/>
</linearGradient>
<linearGradient id="paint13_linear_867_23" x1="425.717" y1="120.159" x2="425.717" y2="108.227" gradientUnits="userSpaceOnUse">
<stop/>
<stop offset="1" stop-color="#666666"/>
</linearGradient>
<linearGradient id="paint14_linear_867_23" x1="414.034" y1="104.476" x2="425.966" y2="104.476" gradientUnits="userSpaceOnUse">
<stop/>
<stop offset="1" stop-color="#666666"/>
</linearGradient>
<linearGradient id="paint15_linear_867_23" x1="800" y1="22" x2="800" y2="40" gradientUnits="userSpaceOnUse">
<stop/>
<stop offset="1" stop-color="#666666"/>
</linearGradient>
<clipPath id="clip0_867_23">
<rect width="16" height="16" fill="white" transform="translate(421.524 91)"/>
</clipPath>
<clipPath id="clip1_867_23">
<rect width="16" height="16" fill="white" transform="matrix(0 1 -1 0 443.933 100.409)"/>
</clipPath>
<clipPath id="clip2_867_23">
<rect width="16" height="16" fill="white" transform="matrix(-1 0 0 -1 433.717 122.193)"/>
</clipPath>
<clipPath id="clip3_867_23">
<rect width="16" height="16" fill="white" transform="matrix(0 -1 1 0 412 112.476)"/>
</clipPath>
<clipPath id="clip4_867_23">
<rect width="36" height="36" fill="white" transform="translate(94 97)"/>
</clipPath>
<clipPath id="clip5_867_23">
<rect width="36" height="36" fill="white" transform="translate(175 138)"/>
</clipPath>
</defs>
</svg>
