<svg width="529" height="506" viewBox="0 0 529 506" fill="none" xmlns="http://www.w3.org/2000/svg">
<path d="M241.889 185.851C244.456 191.154 247.624 195.786 251.532 198.846C251.445 198.827 251.354 198.809 251.262 198.789C249.577 198.437 247.152 197.907 244.195 197.196C238.28 195.772 230.24 193.622 221.737 190.717C213.232 187.812 204.275 184.156 196.522 179.722C188.76 175.284 182.25 170.093 178.582 164.14C176.76 161.182 176.245 158.655 176.654 156.487C177.064 154.316 178.416 152.416 180.507 150.75C184.71 147.402 191.744 145.121 199.337 143.581C206.909 142.046 214.953 141.264 221.111 140.866C224.189 140.667 226.792 140.564 228.625 140.511C229.542 140.485 230.266 140.471 230.76 140.463C230.869 140.461 230.967 140.46 231.053 140.459C231.055 140.486 231.057 140.513 231.06 140.542C231.089 140.902 231.135 141.43 231.2 142.106C231.329 143.457 231.536 145.398 231.842 147.764C232.455 152.493 233.471 158.921 235.079 165.71C236.687 172.496 238.892 179.659 241.889 185.851Z" fill="#64B5F6" stroke="white"/>
<path d="M186.132 163.902H77.135C35.017 163.902 0.5 127.165 0.5 82.201C0.5 37.2368 35.017 0.5 77.135 0.5H186.132C228.25 0.5 262.767 37.2368 262.767 82.201C262.767 127.165 228.252 163.902 186.132 163.902Z" fill="#64B5F6" stroke="white"/>
<path d="M492.359 323.206L492.359 323.21C492.242 326.488 491.523 328.953 491.172 330.061L491.171 330.065C480.881 363.565 474.732 381.166 466.126 395.391C464.641 397.846 463.08 400.203 461.401 402.514L461.398 402.518C459.201 405.605 456.792 408.615 454.111 411.726C448.469 418.266 440.03 421.381 436.777 422.582C436.642 422.632 436.517 422.678 436.401 422.721L436.399 422.722C427.34 426.135 419.2 426.078 413.094 426.036C412.096 426.029 411.152 426.022 410.268 426.031H409.182C408.295 426.022 407.349 426.029 406.35 426.036C400.237 426.078 392.11 426.135 383.051 422.722L383.049 422.721C382.93 422.677 382.802 422.63 382.665 422.579C379.404 421.376 370.962 418.26 365.339 411.726L365.338 411.726C348.991 392.769 342.701 377.033 328.279 330.065L328.277 330.061C327.941 329 327.267 326.706 327.105 323.632C327.062 322.735 327.046 321.848 327.091 320.963C327.398 315.459 329.491 310.046 333.232 305.089L333.232 305.089C339.629 296.596 349.511 291.94 359.738 291.892C359.738 291.892 359.738 291.892 359.738 291.892L409.736 291.668L409.736 291.668L458.824 291.462L458.824 291.462C469.274 291.414 479.395 296.089 486.029 304.694C489.241 308.869 491.276 313.359 492.023 317.976C492.126 318.635 492.213 319.306 492.272 319.959C492.329 320.702 492.373 321.435 492.373 322.178C492.373 322.546 492.373 322.885 492.359 323.206Z" fill="url(#paint0_linear_1038_2251)" fill-opacity="0.89" stroke="black"/>
<path d="M400.031 70.0334V15.3494H406.994V70.0334H400.031Z" fill="white" stroke="black"/>
<path d="M431.01 100.793H376.017C372.268 100.793 369.176 97.5445 369.176 93.4686V72.5239C369.176 68.448 372.268 65.2 376.017 65.2H431.01C434.76 65.2 437.852 68.448 437.852 72.5239V93.4684C437.852 93.4685 437.852 93.4686 437.852 93.4686C437.85 97.5447 434.758 100.793 431.01 100.793Z" fill="white" stroke="black"/>
<path d="M527.673 223.003C527.673 256.585 502.133 283.756 470.695 283.756H336.331C305.023 283.756 279.353 256.447 279.353 223.003V191.184C279.353 131.49 325.178 82.7009 381.119 82.7009H425.908C481.848 82.7009 527.674 131.488 527.674 191.184L527.673 223.003Z" fill="url(#paint1_linear_1038_2251)" stroke="black"/>
<path d="M307.245 195.142L307.245 195.142C311.047 165.775 336.01 143.177 366.641 141.478C379.687 140.754 393.379 140.381 407.66 140.469C418.847 140.538 429.661 140.888 440.073 141.459C470.824 143.147 495.97 165.658 499.786 195.135L499.827 195.455L499.869 195.776C499.869 195.776 499.869 195.776 499.869 195.776C500.97 204.307 496.559 212.632 488.725 216.76C485.535 218.44 481.958 219.321 478.323 219.321H328.705C325.069 219.321 321.492 218.44 318.303 216.76C310.468 212.632 306.059 204.307 307.162 195.778C307.162 195.778 307.162 195.778 307.162 195.778L307.245 195.142Z" fill="white" stroke="black"/>
<path d="M364.081 213.294C379.662 213.294 392.294 199.833 392.294 183.228C392.294 166.623 379.662 153.162 364.081 153.162C348.499 153.162 335.867 166.623 335.867 183.228C335.867 199.833 348.499 213.294 364.081 213.294Z" fill="url(#paint2_radial_1038_2251)"/>
<path d="M364.081 204.809C375.265 204.809 384.331 195.147 384.331 183.228C384.331 171.31 375.265 161.648 364.081 161.648C352.897 161.648 343.83 171.31 343.83 183.228C343.83 195.147 352.897 204.809 364.081 204.809Z" fill="#EEFDFF"/>
<path d="M364.081 201.353C373.474 201.353 381.088 193.238 381.088 183.228C381.088 173.218 373.474 165.103 364.081 165.103C354.687 165.103 347.073 173.218 347.073 183.228C347.073 193.238 354.687 201.353 364.081 201.353Z" fill="url(#paint3_linear_1038_2251)"/>
<path d="M374.975 178.531C374.975 182.239 372.155 185.244 368.675 185.244C365.195 185.244 362.375 182.238 362.375 178.531C362.375 174.824 365.195 171.817 368.675 171.817C372.155 171.817 374.975 174.824 374.975 178.531Z" fill="#EEFDFF"/>
<path d="M361.566 199.808C362.955 199.808 364.081 198.608 364.081 197.128C364.081 195.648 362.955 194.449 361.566 194.449C360.177 194.449 359.052 195.648 359.052 197.128C359.052 198.608 360.177 199.808 361.566 199.808Z" fill="#EEFDFF"/>
<path d="M355.331 193.108C355.331 193.848 354.769 194.447 354.075 194.447C353.381 194.447 352.818 193.848 352.818 193.108C352.818 192.369 353.381 191.769 354.075 191.769C354.769 191.769 355.331 192.37 355.331 193.108Z" fill="#EEFDFF"/>
<path d="M440.298 213.294C455.879 213.294 468.511 199.833 468.511 183.228C468.511 166.623 455.879 153.162 440.298 153.162C424.716 153.162 412.084 166.623 412.084 183.228C412.084 199.833 424.716 213.294 440.298 213.294Z" fill="url(#paint4_radial_1038_2251)"/>
<path d="M440.298 204.809C451.482 204.809 460.548 195.147 460.548 183.228C460.548 171.31 451.482 161.648 440.298 161.648C429.114 161.648 420.047 171.31 420.047 183.228C420.047 195.147 429.114 204.809 440.298 204.809Z" fill="#EEFDFF"/>
<path d="M440.298 201.353C449.691 201.353 457.305 193.238 457.305 183.228C457.305 173.218 449.691 165.103 440.298 165.103C430.904 165.103 423.29 173.218 423.29 183.228C423.29 193.238 430.904 201.353 440.298 201.353Z" fill="url(#paint5_linear_1038_2251)"/>
<path d="M451.194 178.531C451.194 182.239 448.373 185.244 444.894 185.244C441.416 185.244 438.593 182.238 438.593 178.531C438.593 174.824 441.414 171.817 444.894 171.817C448.374 171.817 451.194 174.824 451.194 178.531Z" fill="#EEFDFF"/>
<path d="M437.783 199.808C439.172 199.808 440.297 198.608 440.297 197.128C440.297 195.648 439.172 194.449 437.783 194.449C436.394 194.449 435.269 195.648 435.269 197.128C435.269 198.608 436.394 199.808 437.783 199.808Z" fill="#EEFDFF"/>
<path d="M431.548 193.108C431.548 193.848 430.986 194.447 430.292 194.447C429.598 194.447 429.035 193.848 429.035 193.108C429.035 192.369 429.598 191.769 430.292 191.769C430.986 191.769 431.548 192.37 431.548 193.108Z" fill="#EEFDFF"/>
<path d="M413.215 11.1376C413.215 16.8955 408.842 21.5101 403.512 21.5101C398.184 21.5101 393.811 16.8972 393.811 11.1376C393.811 5.37971 398.184 0.765137 403.512 0.765137C408.842 0.765137 413.215 5.37809 413.215 11.1376Z" fill="white" stroke="black"/>
<path d="M410.605 6.89364C410.605 8.72448 409.212 10.2072 407.494 10.2072C405.776 10.2072 404.383 8.72275 404.383 6.89364C404.383 5.06279 405.776 3.57837 407.494 3.57837C409.212 3.5801 410.605 5.06279 410.605 6.89364Z" fill="white"/>
<path d="M491.355 117.06C491.49 122.135 487.602 128.206 483.149 128.724C478.975 129.21 475.641 124.665 472.203 119.978C468.814 115.359 461.404 103.49 464.356 100.133C468.246 95.7078 491.035 105.085 491.355 117.06Z" fill="white"/>
<path d="M453.221 97.7122C455.179 97.7122 456.766 96.0209 456.766 93.9345C456.766 91.8481 455.179 90.1567 453.221 90.1567C451.263 90.1567 449.676 91.8481 449.676 93.9345C449.676 96.0209 451.263 97.7122 453.221 97.7122Z" fill="white"/>
<path d="M490.849 187.467C489.712 188.323 481.782 171.105 460.492 156.178C453.009 150.93 445.622 147.19 446.061 146.102C446.506 144.999 454.826 147.051 461.487 150.344C482.711 160.837 492.202 186.45 490.849 187.467Z" fill="white"/>
<path d="M436.335 75.5323C436.081 75.5704 435.919 73.982 434.677 71.5276C434.677 71.5276 434.097 70.3792 433.434 69.4058C431.296 66.2707 424.05 66.34 423.481 66.3451C412.196 66.4491 404.941 65.6869 404.944 65.7597C404.946 65.8203 410.238 65.706 414.116 65.6229C425.056 65.3856 431.574 64.7585 434.368 67.8815C435.527 69.1771 436.11 70.8642 436.11 70.8642C436.9 73.1541 436.637 75.4855 436.335 75.5323Z" fill="white"/>
<path d="M432.843 236.523C430.333 246.859 422 254.882 411.501 255.951L411.5 255.951C401.001 257.034 391.395 250.862 387.096 241.228C388.317 242.146 389.855 242.603 391.434 242.435C391.434 242.435 391.435 242.435 391.435 242.435L428.817 238.601L428.818 238.601C430.389 238.434 431.812 237.672 432.843 236.523Z" fill="url(#paint6_linear_1038_2251)" stroke="black"/>
<path d="M409.724 291.177L359.726 291.4C349.35 291.449 339.318 296.174 332.823 304.797C329.031 309.825 326.897 315.33 326.582 320.945C326.835 315.186 329.061 309.537 333.017 304.398C339.734 295.663 350.021 290.922 360.62 290.971L409.724 291.177Z" fill="url(#paint7_linear_1038_2251)"/>
<path d="M459.417 369.67L458.917 369.678C458.918 369.774 458.92 369.871 458.922 369.969C459.024 376.206 459.203 387.138 465.947 395.683C464.623 397.855 463.239 399.953 461.764 402.01C461.399 401.589 461.063 401.173 460.747 400.778L460.746 400.777C454.123 392.518 453.947 381.836 453.844 375.539C453.842 375.451 453.841 375.363 453.839 375.277L453.839 375.276C453.582 360.733 452.764 350.269 452.15 342.421C451.891 339.113 451.669 336.271 451.54 333.783C451.322 329.574 451.372 326.393 451.944 323.665C452.512 320.953 453.601 318.669 455.494 316.266L455.494 316.266L455.496 316.263C455.906 315.736 457.12 314.198 459.054 312.571C458.079 314.257 457.433 315.985 457.035 317.918C456.447 320.777 456.408 324.067 456.627 328.294C456.758 330.807 456.98 333.658 457.238 336.961C457.849 344.799 458.66 355.187 458.917 369.679L459.417 369.67ZM459.417 369.67C459.159 355.163 458.347 344.742 457.735 336.9C456.682 323.4 456.226 317.544 460.224 311.647L462.104 402.394C463.677 400.204 465.148 397.97 466.552 395.65C466.524 395.589 466.482 395.543 466.44 395.499L466.433 395.492C459.703 387.064 459.524 376.207 459.421 369.928C459.419 369.841 459.418 369.755 459.417 369.67Z" fill="white" stroke="black"/>
<path d="M488.438 335.258C488.218 330.816 487.436 327.551 485.873 321.018C483.828 312.472 481.263 308.306 482.929 306.655C484.013 305.581 486.149 306.307 486.634 306.472C493.964 308.964 496.233 323.619 495.918 332.791C495.724 338.407 494.438 344.685 492.508 344.963C492.204 345.006 491.446 344.964 490.905 344.453C488.75 342.425 488.605 338.633 488.438 335.258Z" fill="white"/>
<path d="M493.471 350.932C493.471 351.827 492.79 352.553 491.95 352.553C491.11 352.553 490.428 351.827 490.428 350.932C490.428 350.036 491.11 349.31 491.95 349.31C492.79 349.31 493.471 350.036 493.471 350.932Z" fill="white"/>
<g filter="url(#filter0_f_1038_2251)">
<path d="M407.494 501.184C451.543 501.184 487.251 485.605 487.251 466.387C487.251 447.17 451.543 431.591 407.494 431.591C363.446 431.591 327.737 447.17 327.737 466.387C327.737 485.605 363.446 501.184 407.494 501.184Z" fill="url(#paint8_radial_1038_2251)"/>
</g>
<path d="M82.7426 113.656C82.7832 114.602 80.1664 115.203 74.8953 115.463C69.6226 115.721 66.9668 115.378 66.9262 114.432L66.0988 95.2403L55.1374 95.7772L55.9647 114.969C56.0053 115.915 53.3901 116.518 48.1174 116.776C42.8447 117.034 40.1889 116.691 40.1482 115.745L37.7622 60.423C37.7118 59.2556 40.3221 58.542 45.5948 58.2839C50.8675 58.0258 53.5283 58.4813 53.5786 59.6488L54.4238 79.258L65.3869 78.7211L64.5482 59.2798C64.5141 58.5004 65.7949 57.8803 68.3906 57.4195C69.7429 57.2429 71.0708 57.1216 72.3776 57.0575L76.3777 57.0281C79.0026 57.2342 80.3322 57.7261 80.3647 58.5056L82.7426 113.656Z" fill="url(#paint9_linear_1038_2251)"/>
<path d="M119.741 111.006C116.54 113.225 112.357 114.461 107.19 114.714C102.023 114.967 97.5821 113.303 93.8714 109.722C90.1591 106.142 88.1599 101.029 87.8738 94.3811C87.5877 87.735 89.0652 82.2961 92.3094 78.0663C95.552 73.8382 99.7845 71.5951 105.005 71.3405C110.224 71.0841 114.317 72.3053 117.285 75.0039C120.253 77.7026 121.823 81.0819 121.998 85.142C122.387 94.1542 117.727 98.8967 108.019 99.373L102.616 99.6381C102.687 101.308 103.168 102.441 104.056 103.038C104.945 103.636 106.224 103.894 107.895 103.811C111.549 103.632 114.982 102.572 118.193 100.631C118.242 100.573 118.494 100.949 118.948 101.763C120.303 104.095 121.017 106.08 121.088 107.72C121.161 109.364 120.709 110.459 119.741 111.006ZM108.914 87.3712C108.813 85.0346 107.692 83.9191 105.553 84.0248C104.56 84.0733 103.726 84.4353 103.05 85.1091C102.372 85.7846 102.06 86.7338 102.114 87.9567L102.226 90.5427L106.453 90.3349C108.175 90.2517 108.995 89.2644 108.914 87.3712Z" fill="url(#paint10_linear_1038_2251)"/>
<path d="M142.516 111.481C142.537 111.981 139.886 112.362 134.561 112.622C130.382 112.771 128.285 112.652 128.268 112.262L125.817 55.4382C125.781 54.6034 128.294 54.0629 133.358 53.8152C137.8 53.765 140.032 53.9348 140.05 54.3228L142.516 111.481Z" fill="url(#paint11_linear_1038_2251)"/>
<path d="M163.811 110.438C163.832 110.938 161.181 111.319 155.856 111.579C151.678 111.728 149.581 111.609 149.563 111.219L147.112 54.3953C147.076 53.5604 149.589 53.02 154.654 52.7723C159.097 52.722 161.327 52.8918 161.345 53.2815L163.811 110.438Z" fill="url(#paint12_linear_1038_2251)"/>
<path d="M174.08 105.67C170.652 101.991 168.791 96.7597 168.498 89.9716C168.206 83.1852 169.609 77.7931 172.705 73.7954C175.801 69.7976 180.117 67.662 185.649 67.3917C191.182 67.1215 195.65 68.8259 199.052 72.5049C202.454 76.184 204.302 81.4184 204.595 88.2048C204.887 94.993 203.497 100.383 200.427 104.379C197.355 108.375 193.053 110.511 187.522 110.781C181.989 111.051 177.508 109.349 174.08 105.67ZM186.29 81.3249C183.34 81.4686 181.976 84.1015 182.197 89.2181C182.418 94.3365 184.003 96.8221 186.951 96.6783C189.9 96.5346 191.265 93.9035 191.044 88.7851C190.824 83.6667 189.238 81.1794 186.29 81.3249Z" fill="url(#paint13_linear_1038_2251)"/>
<path d="M210.511 96.2762C210.495 95.8864 212.9 95.5729 217.729 95.3374C222.557 95.1001 224.978 95.1486 224.993 95.4829L225.511 107.499C225.536 108.056 223.132 108.451 218.305 108.688C213.476 108.926 211.054 108.876 211.041 108.543L210.511 96.2762ZM223.215 90.6364C223.229 90.9707 221.37 91.2288 217.638 91.4107C213.905 91.5943 212.034 91.5475 212.021 91.2686L208.681 50.2089C208.661 49.7654 211.039 49.4242 215.816 49.1904C220.591 48.9565 222.989 49.0345 223.005 49.4242L223.215 90.6364Z" fill="#1976D2"/>
<path d="M221.224 82.6687C221.224 82.6687 218.137 52.8781 219.672 52.0657C221.206 51.2551 221.936 67.5266 221.224 82.6687Z" fill="white"/>
<path d="M224.283 97.7121C224.283 98.7011 223.53 99.5014 222.604 99.5014C221.676 99.5014 220.925 98.6994 220.925 97.7121C220.925 96.7231 221.677 95.9229 222.604 95.9229C223.53 95.9229 224.283 96.7248 224.283 97.7121Z" fill="white"/>
<path d="M202.288 84.6657C202.298 83.0046 202.111 78.269 198.885 74.4306C196.11 71.131 192.4 70.0536 190.711 70.2632C190.389 70.303 189.297 70.5039 189.225 70.9907C189.077 71.997 193.539 72.7003 196.876 75.366C198.743 76.8556 200.957 79.5196 202.288 84.6657Z" fill="white"/>
<path d="M158.857 53.8149C160.571 53.7976 161.225 87.2066 160.726 93.25C160.227 99.2933 158.166 53.8219 158.857 53.8149Z" fill="white"/>
<path d="M120.074 82.4212C119.323 77.9039 114.484 72.8322 111.464 73.6256C108.443 74.4189 115.043 76.8611 117.41 79.0401C119.775 81.2209 120.074 82.4212 120.074 82.4212Z" fill="white"/>
<path d="M93.5578 108.152C97.067 112.298 102.08 113.098 102.149 112.922C102.224 112.736 96.6606 111.941 93.735 107.182C92.3583 104.944 90.9946 100.901 90.0876 100.899C90.0665 100.899 90.0307 100.901 89.9982 100.927C89.5334 101.285 91.3099 105.496 93.5578 108.152Z" fill="white"/>
<path d="M80.7075 107.308C79.5877 108.947 79.4381 66.7853 78.7213 62.6646C78.7213 62.6646 78.7213 62.6646 78.7213 62.3944C78.7067 62.1242 78.6921 61.5838 78.6758 60.5012C78.6726 60.2622 78.4645 59.4359 78.2857 59.2627C76.8196 57.8493 70.3767 58.5612 73.1236 58.1784C75.5502 57.8407 78.3507 58.0936 79.0643 58.3672C79.3764 58.4868 79.3942 59.1328 79.469 59.3719C80.8717 67.7241 82.1996 105.145 80.7075 107.308Z" fill="white"/>
<path d="M461.178 310.34L461.571 310.649C459.68 313.052 458.592 315.336 458.025 318.049C457.453 320.778 457.403 323.959 457.621 328.17C457.749 330.659 457.971 333.504 458.23 336.813C458.843 344.663 459.66 355.126 459.916 369.666C459.918 369.762 459.92 369.858 459.922 369.956C460.032 376.252 460.218 386.92 466.828 395.171L466.828 395.171C467.602 396.137 468.51 397.25 469.583 398.141C470.654 399.031 471.85 399.667 473.195 399.734C474.833 399.814 476.45 399.034 478.02 397.636C479.588 396.24 481.059 394.27 482.389 392.088C485.048 387.726 487.086 382.616 488.202 379.817L488.202 379.817C493.294 367.046 496.988 350.537 497.475 336.067C497.719 328.832 497.159 322.131 495.588 316.673C494.015 311.21 491.447 307.05 487.717 304.799L461.178 310.34ZM461.178 310.34L461.571 310.649C462.455 309.527 466.896 303.897 474.169 302.462M461.178 310.34L474.169 302.462M474.169 302.462C479.962 301.32 485.235 303.301 487.717 304.799L474.169 302.462Z" fill="url(#paint14_linear_1038_2251)" stroke="black"/>
<path d="M291.847 283.308L291.847 283.308C305.011 287.151 314.666 289.271 321.906 290.86C324.957 291.53 327.579 292.106 329.853 292.676C333.702 293.642 336.544 294.589 338.83 295.938C341.103 297.279 342.85 299.03 344.48 301.644L344.48 301.644C345.237 302.855 349.064 309.003 348.3 316.875C347.689 323.149 344.404 327.997 342.354 330.112C339.274 333.29 334.815 334.734 329.472 334.8C324.128 334.865 317.949 333.548 311.51 331.259C298.632 326.68 284.82 318.248 274.765 309.44C272.56 307.509 268.538 303.985 265.362 300.036C263.774 298.062 262.415 296.002 261.599 294.001C260.782 291.998 260.527 290.102 261.072 288.418C261.971 285.643 264.78 284.225 266.988 283.172L266.988 283.172C276.26 278.753 285.891 281.567 291.591 283.233C291.678 283.259 291.763 283.284 291.847 283.308Z" fill="url(#paint15_linear_1038_2251)" stroke="black"/>
<defs>
<filter id="filter0_f_1038_2251" x="323.737" y="427.591" width="167.514" height="77.593" filterUnits="userSpaceOnUse" color-interpolation-filters="sRGB">
<feFlood flood-opacity="0" result="BackgroundImageFix"/>
<feBlend mode="normal" in="SourceGraphic" in2="BackgroundImageFix" result="shape"/>
<feGaussianBlur stdDeviation="2" result="effect1_foregroundBlur_1038_2251"/>
</filter>
<linearGradient id="paint0_linear_1038_2251" x1="409.719" y1="290.962" x2="409.719" y2="426.546" gradientUnits="userSpaceOnUse">
<stop stop-color="#FEC171"/>
<stop offset="1" stop-color="white"/>
</linearGradient>
<linearGradient id="paint1_linear_1038_2251" x1="403.514" y1="82.2009" x2="403.514" y2="284.256" gradientUnits="userSpaceOnUse">
<stop stop-color="#FEC171"/>
<stop offset="1" stop-color="white"/>
</linearGradient>
<radialGradient id="paint2_radial_1038_2251" cx="0" cy="0" r="1" gradientUnits="userSpaceOnUse" gradientTransform="translate(364.08 183.228) scale(27.9212 29.755)">
<stop offset="0.1296" stop-color="#3280FC"/>
<stop offset="1"/>
</radialGradient>
<linearGradient id="paint3_linear_1038_2251" x1="347.071" y1="183.228" x2="381.088" y2="183.228" gradientUnits="userSpaceOnUse">
<stop stop-color="#030D14"/>
<stop offset="1" stop-color="#0B2F45"/>
</linearGradient>
<radialGradient id="paint4_radial_1038_2251" cx="0" cy="0" r="1" gradientUnits="userSpaceOnUse" gradientTransform="translate(440.297 183.228) scale(27.9212 29.755)">
<stop offset="0.1296" stop-color="#3280FC"/>
<stop offset="1"/>
</radialGradient>
<linearGradient id="paint5_linear_1038_2251" x1="423.289" y1="183.228" x2="457.306" y2="183.228" gradientUnits="userSpaceOnUse">
<stop stop-color="#030D14"/>
<stop offset="1" stop-color="#0B2F45"/>
</linearGradient>
<linearGradient id="paint6_linear_1038_2251" x1="409.715" y1="232.727" x2="409.715" y2="256.574" gradientUnits="userSpaceOnUse">
<stop stop-color="#FBE000" stop-opacity="0.81"/>
<stop offset="1" stop-color="#3F3D56" stop-opacity="0.4"/>
</linearGradient>
<linearGradient id="paint7_linear_1038_2251" x1="349.732" y1="324.708" x2="432.959" y2="233.509" gradientUnits="userSpaceOnUse">
<stop offset="0.0397" stop-color="#06CFF1"/>
<stop offset="1" stop-color="#DEFA8E"/>
</linearGradient>
<radialGradient id="paint8_radial_1038_2251" cx="0" cy="0" r="1" gradientUnits="userSpaceOnUse" gradientTransform="translate(407.494 466.388) scale(79.7565 34.7957)">
<stop stop-color="#BCD7D6" stop-opacity="0.6"/>
<stop offset="0.484" stop-color="#96A8AF" stop-opacity="0.6"/>
<stop offset="1" stop-color="#B3CCCD" stop-opacity="0.1"/>
</radialGradient>
<linearGradient id="paint9_linear_1038_2251" x1="41.5073" y1="92.1269" x2="253.326" y2="40.2843" gradientUnits="userSpaceOnUse">
<stop offset="0.0539996" stop-color="white"/>
<stop offset="1" stop-color="#1976D2"/>
</linearGradient>
<linearGradient id="paint10_linear_1038_2251" x1="45.8696" y1="109.95" x2="257.69" y2="58.1071" gradientUnits="userSpaceOnUse">
<stop offset="0.224" stop-color="white"/>
<stop offset="0.419" stop-color="#FEC171"/>
<stop offset="0.539" stop-color="#FBE000" stop-opacity="0.3"/>
</linearGradient>
<linearGradient id="paint11_linear_1038_2251" x1="45.3901" y1="107.98" x2="257.205" y2="56.1383" gradientUnits="userSpaceOnUse">
<stop offset="0.0397" stop-color="#FEC171"/>
<stop offset="0.704" stop-color="white"/>
</linearGradient>
<linearGradient id="paint12_linear_1038_2251" x1="46.5086" y1="112.545" x2="258.322" y2="60.7035" gradientUnits="userSpaceOnUse">
<stop offset="0.0397" stop-color="#64B5F6"/>
<stop offset="0.709" stop-color="white"/>
</linearGradient>
<linearGradient id="paint13_linear_1038_2251" x1="50.0516" y1="127.036" x2="261.872" y2="75.1929" gradientUnits="userSpaceOnUse">
<stop offset="0.0397" stop-color="#FBE000"/>
<stop offset="0.36" stop-color="white"/>
</linearGradient>
<linearGradient id="paint14_linear_1038_2251" x1="477.516" y1="301.623" x2="477.516" y2="400.239" gradientUnits="userSpaceOnUse">
<stop stop-color="#FEC171"/>
<stop offset="1" stop-color="white"/>
</linearGradient>
<linearGradient id="paint15_linear_1038_2251" x1="304.592" y1="280.305" x2="304.592" y2="335.302" gradientUnits="userSpaceOnUse">
<stop stop-color="#FEC171"/>
<stop offset="1" stop-color="white"/>
</linearGradient>
</defs>
</svg>
